<svg width="216" height="216" viewBox="0 0 216 216" fill="none" xmlns="http://www.w3.org/2000/svg">
<circle cx="108" cy="108" r="108" fill="#D8DBBA"/>
<path d="M57.5195 164.203C56.9922 164.835 56.2467 165.326 55.2832 165.678C54.3197 166.023 53.252 166.195 52.0801 166.195C50.8496 166.195 49.7689 165.928 48.8379 165.395C47.9134 164.854 47.1973 164.073 46.6895 163.051C46.1882 162.029 45.931 160.827 45.918 159.447V158.48C45.918 157.061 46.1556 155.834 46.6309 154.799C47.1126 153.757 47.8027 152.963 48.7012 152.416C49.6061 151.863 50.6641 151.586 51.875 151.586C53.5612 151.586 54.8796 151.99 55.8301 152.797C56.7806 153.598 57.3438 154.766 57.5195 156.303H54.668C54.5378 155.489 54.248 154.893 53.7988 154.516C53.3561 154.138 52.7441 153.949 51.9629 153.949C50.9668 153.949 50.2083 154.324 49.6875 155.072C49.1667 155.821 48.903 156.934 48.8965 158.412V159.32C48.8965 160.811 49.1797 161.938 49.7461 162.699C50.3125 163.461 51.1426 163.842 52.2363 163.842C53.3366 163.842 54.1211 163.607 54.5898 163.139V160.688H51.9238V158.529H57.5195V164.203ZM65.8398 166C65.7096 165.746 65.6152 165.43 65.5566 165.053C64.873 165.814 63.9844 166.195 62.8906 166.195C61.8555 166.195 60.9961 165.896 60.3125 165.297C59.6354 164.698 59.2969 163.943 59.2969 163.031C59.2969 161.911 59.7103 161.052 60.5371 160.453C61.3704 159.854 62.5716 159.551 64.1406 159.545H65.4395V158.939C65.4395 158.451 65.3125 158.061 65.0586 157.768C64.8112 157.475 64.4173 157.328 63.877 157.328C63.4017 157.328 63.0273 157.442 62.7539 157.67C62.487 157.898 62.3535 158.21 62.3535 158.607H59.5312C59.5312 157.995 59.7201 157.429 60.0977 156.908C60.4753 156.387 61.0091 155.98 61.6992 155.688C62.3893 155.388 63.1641 155.238 64.0234 155.238C65.3255 155.238 66.3574 155.567 67.1191 156.225C67.8874 156.876 68.2715 157.794 68.2715 158.979V163.559C68.278 164.561 68.418 165.32 68.6914 165.834V166H65.8398ZM63.5059 164.037C63.9225 164.037 64.3066 163.946 64.6582 163.764C65.0098 163.575 65.2702 163.324 65.4395 163.012V161.195H64.3848C62.972 161.195 62.2201 161.684 62.1289 162.66L62.1191 162.826C62.1191 163.178 62.2428 163.467 62.4902 163.695C62.7376 163.923 63.0762 164.037 63.5059 164.037ZM73.0859 155.434L73.1738 156.615C73.9225 155.697 74.9349 155.238 76.2109 155.238C77.5716 155.238 78.5059 155.775 79.0137 156.85C79.7559 155.775 80.8138 155.238 82.1875 155.238C83.3333 155.238 84.1862 155.574 84.7461 156.244C85.306 156.908 85.5859 157.911 85.5859 159.252V166H82.7539V159.262C82.7539 158.663 82.6367 158.227 82.4023 157.953C82.168 157.673 81.7546 157.533 81.1621 157.533C80.3158 157.533 79.7298 157.937 79.4043 158.744L79.4141 166H76.5918V159.271C76.5918 158.66 76.4714 158.217 76.2305 157.943C75.9896 157.67 75.5794 157.533 75 157.533C74.1992 157.533 73.6198 157.865 73.2617 158.529V166H70.4395V155.434H73.0859ZM92.627 166.195C91.0775 166.195 89.8145 165.72 88.8379 164.77C87.8678 163.819 87.3828 162.553 87.3828 160.971V160.697C87.3828 159.636 87.5879 158.689 87.998 157.855C88.4082 157.016 88.9876 156.371 89.7363 155.922C90.4915 155.466 91.3509 155.238 92.3145 155.238C93.7598 155.238 94.8958 155.694 95.7227 156.605C96.556 157.517 96.9727 158.809 96.9727 160.482V161.635H90.2441C90.3353 162.325 90.6087 162.878 91.0645 163.295C91.5267 163.712 92.1094 163.92 92.8125 163.92C93.8997 163.92 94.7493 163.526 95.3613 162.738L96.748 164.291C96.3249 164.89 95.752 165.359 95.0293 165.697C94.3066 166.029 93.5059 166.195 92.627 166.195ZM92.3047 157.523C91.7448 157.523 91.2891 157.712 90.9375 158.09C90.5924 158.467 90.3711 159.008 90.2734 159.711H94.1992V159.486C94.1862 158.861 94.0169 158.38 93.6914 158.041C93.3659 157.696 92.9036 157.523 92.3047 157.523ZM104.307 163.08C104.307 162.735 104.134 162.465 103.789 162.27C103.451 162.068 102.904 161.889 102.148 161.732C99.6354 161.205 98.3789 160.137 98.3789 158.529C98.3789 157.592 98.7663 156.811 99.541 156.186C100.322 155.554 101.341 155.238 102.598 155.238C103.939 155.238 105.01 155.554 105.811 156.186C106.618 156.817 107.021 157.637 107.021 158.646H104.199C104.199 158.243 104.069 157.911 103.809 157.65C103.548 157.383 103.141 157.25 102.588 157.25C102.113 157.25 101.745 157.357 101.484 157.572C101.224 157.787 101.094 158.061 101.094 158.393C101.094 158.705 101.24 158.959 101.533 159.154C101.833 159.343 102.334 159.509 103.037 159.652C103.74 159.789 104.333 159.945 104.814 160.121C106.305 160.668 107.051 161.615 107.051 162.963C107.051 163.926 106.637 164.708 105.811 165.307C104.984 165.899 103.916 166.195 102.607 166.195C101.722 166.195 100.934 166.039 100.244 165.727C99.5605 165.408 99.0234 164.975 98.6328 164.428C98.2422 163.874 98.0469 163.279 98.0469 162.641H100.723C100.749 163.142 100.934 163.526 101.279 163.793C101.624 164.06 102.087 164.193 102.666 164.193C103.206 164.193 103.613 164.092 103.887 163.891C104.167 163.682 104.307 163.412 104.307 163.08ZM123.369 160.814C123.369 162.442 122.998 163.747 122.256 164.73C121.52 165.707 120.524 166.195 119.268 166.195C118.2 166.195 117.337 165.824 116.68 165.082V170.062H113.857V155.434H116.475L116.572 156.469C117.256 155.648 118.148 155.238 119.248 155.238C120.55 155.238 121.562 155.72 122.285 156.684C123.008 157.647 123.369 158.975 123.369 160.668V160.814ZM120.547 160.609C120.547 159.626 120.371 158.868 120.02 158.334C119.674 157.8 119.17 157.533 118.506 157.533C117.62 157.533 117.012 157.872 116.68 158.549V162.875C117.025 163.572 117.64 163.92 118.525 163.92C119.873 163.92 120.547 162.816 120.547 160.609ZM128.105 166H125.273V151H128.105V166ZM136.562 166C136.432 165.746 136.338 165.43 136.279 165.053C135.596 165.814 134.707 166.195 133.613 166.195C132.578 166.195 131.719 165.896 131.035 165.297C130.358 164.698 130.02 163.943 130.02 163.031C130.02 161.911 130.433 161.052 131.26 160.453C132.093 159.854 133.294 159.551 134.863 159.545H136.162V158.939C136.162 158.451 136.035 158.061 135.781 157.768C135.534 157.475 135.14 157.328 134.6 157.328C134.124 157.328 133.75 157.442 133.477 157.67C133.21 157.898 133.076 158.21 133.076 158.607H130.254C130.254 157.995 130.443 157.429 130.82 156.908C131.198 156.387 131.732 155.98 132.422 155.688C133.112 155.388 133.887 155.238 134.746 155.238C136.048 155.238 137.08 155.567 137.842 156.225C138.61 156.876 138.994 157.794 138.994 158.979V163.559C139.001 164.561 139.141 165.32 139.414 165.834V166H136.562ZM134.229 164.037C134.645 164.037 135.029 163.946 135.381 163.764C135.732 163.575 135.993 163.324 136.162 163.012V161.195H135.107C133.695 161.195 132.943 161.684 132.852 162.66L132.842 162.826C132.842 163.178 132.965 163.467 133.213 163.695C133.46 163.923 133.799 164.037 134.229 164.037ZM144.951 162.006L146.904 155.434H149.932L145.684 167.641L145.449 168.197C144.818 169.577 143.776 170.268 142.324 170.268C141.914 170.268 141.497 170.206 141.074 170.082V167.943L141.504 167.953C142.038 167.953 142.435 167.872 142.695 167.709C142.962 167.546 143.171 167.276 143.32 166.898L143.652 166.029L139.951 155.434H142.988L144.951 162.006ZM155.771 166.195C154.222 166.195 152.959 165.72 151.982 164.77C151.012 163.819 150.527 162.553 150.527 160.971V160.697C150.527 159.636 150.732 158.689 151.143 157.855C151.553 157.016 152.132 156.371 152.881 155.922C153.636 155.466 154.495 155.238 155.459 155.238C156.904 155.238 158.04 155.694 158.867 156.605C159.701 157.517 160.117 158.809 160.117 160.482V161.635H153.389C153.48 162.325 153.753 162.878 154.209 163.295C154.671 163.712 155.254 163.92 155.957 163.92C157.044 163.92 157.894 163.526 158.506 162.738L159.893 164.291C159.469 164.89 158.896 165.359 158.174 165.697C157.451 166.029 156.65 166.195 155.771 166.195ZM155.449 157.523C154.889 157.523 154.434 157.712 154.082 158.09C153.737 158.467 153.516 159.008 153.418 159.711H157.344V159.486C157.331 158.861 157.161 158.38 156.836 158.041C156.51 157.696 156.048 157.523 155.449 157.523ZM161.289 160.639C161.289 158.992 161.657 157.68 162.393 156.703C163.135 155.727 164.147 155.238 165.43 155.238C166.458 155.238 167.308 155.622 167.979 156.391V151H170.811V166H168.262L168.125 164.877C167.422 165.756 166.517 166.195 165.41 166.195C164.167 166.195 163.167 165.707 162.412 164.73C161.663 163.747 161.289 162.383 161.289 160.639ZM164.111 160.844C164.111 161.833 164.284 162.592 164.629 163.119C164.974 163.646 165.475 163.91 166.133 163.91C167.005 163.91 167.62 163.542 167.979 162.807V158.637C167.627 157.901 167.018 157.533 166.152 157.533C164.792 157.533 164.111 158.637 164.111 160.844Z" fill="white"/>
<path d="M80.0859 115H75.7266V86.1016L66.9844 89.3125V85.375L79.4062 80.7109H80.0859V115ZM115.148 115H92.7891V111.883L104.602 98.7578C106.352 96.7734 107.555 95.1641 108.211 93.9297C108.883 92.6797 109.219 91.3906 109.219 90.0625C109.219 88.2812 108.68 86.8203 107.602 85.6797C106.523 84.5391 105.086 83.9688 103.289 83.9688C101.133 83.9688 99.4531 84.5859 98.25 85.8203C97.0625 87.0391 96.4688 88.7422 96.4688 90.9297H92.1328C92.1328 87.7891 93.1406 85.25 95.1562 83.3125C97.1875 81.375 99.8984 80.4062 103.289 80.4062C106.461 80.4062 108.969 81.2422 110.812 82.9141C112.656 84.5703 113.578 86.7812 113.578 89.5469C113.578 92.9062 111.438 96.9062 107.156 101.547L98.0156 111.461H115.148V115ZM126.047 95.8281H129.305C131.352 95.7969 132.961 95.2578 134.133 94.2109C135.305 93.1641 135.891 91.75 135.891 89.9688C135.891 85.9688 133.898 83.9688 129.914 83.9688C128.039 83.9688 126.539 84.5078 125.414 85.5859C124.305 86.6484 123.75 88.0625 123.75 89.8281H119.414C119.414 87.125 120.398 84.8828 122.367 83.1016C124.352 81.3047 126.867 80.4062 129.914 80.4062C133.133 80.4062 135.656 81.2578 137.484 82.9609C139.312 84.6641 140.227 87.0312 140.227 90.0625C140.227 91.5469 139.742 92.9844 138.773 94.375C137.82 95.7656 136.516 96.8047 134.859 97.4922C136.734 98.0859 138.18 99.0703 139.195 100.445C140.227 101.82 140.742 103.5 140.742 105.484C140.742 108.547 139.742 110.977 137.742 112.773C135.742 114.57 133.141 115.469 129.938 115.469C126.734 115.469 124.125 114.602 122.109 112.867C120.109 111.133 119.109 108.844 119.109 106H123.469C123.469 107.797 124.055 109.234 125.227 110.312C126.398 111.391 127.969 111.93 129.938 111.93C132.031 111.93 133.633 111.383 134.742 110.289C135.852 109.195 136.406 107.625 136.406 105.578C136.406 103.594 135.797 102.07 134.578 101.008C133.359 99.9453 131.602 99.3984 129.305 99.3672H126.047V95.8281Z" fill="#FFFAFA"/>
</svg>
