<svg width="216" height="216" viewBox="0 0 216 216" fill="none" xmlns="http://www.w3.org/2000/svg">
<circle cx="108" cy="108" r="108" fill="#D8DBBA"/>
<path d="M50.1992 163.646H56.4199V166H47.2695V151.781H50.1992V163.646ZM64.0469 166C63.9167 165.746 63.8223 165.43 63.7637 165.053C63.0801 165.814 62.1914 166.195 61.0977 166.195C60.0625 166.195 59.2031 165.896 58.5195 165.297C57.8424 164.698 57.5039 163.943 57.5039 163.031C57.5039 161.911 57.9173 161.052 58.7441 160.453C59.5775 159.854 60.7786 159.551 62.3477 159.545H63.6465V158.939C63.6465 158.451 63.5195 158.061 63.2656 157.768C63.0182 157.475 62.6243 157.328 62.084 157.328C61.6087 157.328 61.2344 157.442 60.9609 157.67C60.694 157.898 60.5605 158.21 60.5605 158.607H57.7383C57.7383 157.995 57.9271 157.429 58.3047 156.908C58.6823 156.387 59.2161 155.98 59.9062 155.688C60.5964 155.388 61.3711 155.238 62.2305 155.238C63.5326 155.238 64.5645 155.567 65.3262 156.225C66.0944 156.876 66.4785 157.794 66.4785 158.979V163.559C66.485 164.561 66.625 165.32 66.8984 165.834V166H64.0469ZM61.7129 164.037C62.1296 164.037 62.5137 163.946 62.8652 163.764C63.2168 163.575 63.4772 163.324 63.6465 163.012V161.195H62.5918C61.179 161.195 60.4271 161.684 60.3359 162.66L60.3262 162.826C60.3262 163.178 60.4499 163.467 60.6973 163.695C60.9447 163.923 61.2832 164.037 61.7129 164.037ZM72.0254 152.836V155.434H73.832V157.504H72.0254V162.777C72.0254 163.168 72.1003 163.448 72.25 163.617C72.3997 163.786 72.6862 163.871 73.1094 163.871C73.4219 163.871 73.6986 163.848 73.9395 163.803V165.941C73.3861 166.111 72.8164 166.195 72.2305 166.195C70.2513 166.195 69.2422 165.196 69.2031 163.197V157.504H67.6602V155.434H69.2031V152.836H72.0254ZM80.2676 166.195C78.7181 166.195 77.4551 165.72 76.4785 164.77C75.5085 163.819 75.0234 162.553 75.0234 160.971V160.697C75.0234 159.636 75.2285 158.689 75.6387 157.855C76.0488 157.016 76.6283 156.371 77.377 155.922C78.1322 155.466 78.9915 155.238 79.9551 155.238C81.4004 155.238 82.5365 155.694 83.3633 156.605C84.1966 157.517 84.6133 158.809 84.6133 160.482V161.635H77.8848C77.9759 162.325 78.2493 162.878 78.7051 163.295C79.1673 163.712 79.75 163.92 80.4531 163.92C81.5404 163.92 82.39 163.526 83.002 162.738L84.3887 164.291C83.9655 164.89 83.3926 165.359 82.6699 165.697C81.9473 166.029 81.1465 166.195 80.2676 166.195ZM79.9453 157.523C79.3854 157.523 78.9297 157.712 78.5781 158.09C78.2331 158.467 78.0117 159.008 77.9141 159.711H81.8398V159.486C81.8268 158.861 81.6576 158.38 81.332 158.041C81.0065 157.696 80.5443 157.523 79.9453 157.523ZM91.9473 163.08C91.9473 162.735 91.7747 162.465 91.4297 162.27C91.0911 162.068 90.5443 161.889 89.7891 161.732C87.276 161.205 86.0195 160.137 86.0195 158.529C86.0195 157.592 86.4069 156.811 87.1816 156.186C87.9629 155.554 88.9818 155.238 90.2383 155.238C91.5794 155.238 92.6504 155.554 93.4512 156.186C94.2585 156.817 94.6621 157.637 94.6621 158.646H91.8398C91.8398 158.243 91.7096 157.911 91.4492 157.65C91.1888 157.383 90.7819 157.25 90.2285 157.25C89.7533 157.25 89.3854 157.357 89.125 157.572C88.8646 157.787 88.7344 158.061 88.7344 158.393C88.7344 158.705 88.8809 158.959 89.1738 159.154C89.4733 159.343 89.9746 159.509 90.6777 159.652C91.3809 159.789 91.9733 159.945 92.4551 160.121C93.946 160.668 94.6914 161.615 94.6914 162.963C94.6914 163.926 94.278 164.708 93.4512 165.307C92.6243 165.899 91.5566 166.195 90.248 166.195C89.3626 166.195 88.5749 166.039 87.8848 165.727C87.2012 165.408 86.6641 164.975 86.2734 164.428C85.8828 163.874 85.6875 163.279 85.6875 162.641H88.3633C88.3893 163.142 88.5749 163.526 88.9199 163.793C89.265 164.06 89.7272 164.193 90.3066 164.193C90.847 164.193 91.2539 164.092 91.5273 163.891C91.8073 163.682 91.9473 163.412 91.9473 163.08ZM99.8965 152.836V155.434H101.703V157.504H99.8965V162.777C99.8965 163.168 99.9714 163.448 100.121 163.617C100.271 163.786 100.557 163.871 100.98 163.871C101.293 163.871 101.57 163.848 101.811 163.803V165.941C101.257 166.111 100.688 166.195 100.102 166.195C98.1224 166.195 97.1133 165.196 97.0742 163.197V157.504H95.5312V155.434H97.0742V152.836H99.8965ZM117.777 160.814C117.777 162.507 117.416 163.829 116.693 164.779C115.971 165.723 114.962 166.195 113.666 166.195C112.52 166.195 111.605 165.756 110.922 164.877L110.795 166H108.256V151H111.078V156.381C111.729 155.619 112.585 155.238 113.646 155.238C114.936 155.238 115.945 155.714 116.674 156.664C117.41 157.608 117.777 158.939 117.777 160.658V160.814ZM114.955 160.609C114.955 159.542 114.786 158.764 114.447 158.275C114.109 157.781 113.604 157.533 112.934 157.533C112.035 157.533 111.417 157.901 111.078 158.637V162.807C111.423 163.549 112.048 163.92 112.953 163.92C113.865 163.92 114.464 163.471 114.75 162.572C114.887 162.143 114.955 161.488 114.955 160.609ZM125.648 166C125.518 165.746 125.424 165.43 125.365 165.053C124.682 165.814 123.793 166.195 122.699 166.195C121.664 166.195 120.805 165.896 120.121 165.297C119.444 164.698 119.105 163.943 119.105 163.031C119.105 161.911 119.519 161.052 120.346 160.453C121.179 159.854 122.38 159.551 123.949 159.545H125.248V158.939C125.248 158.451 125.121 158.061 124.867 157.768C124.62 157.475 124.226 157.328 123.686 157.328C123.21 157.328 122.836 157.442 122.562 157.67C122.296 157.898 122.162 158.21 122.162 158.607H119.34C119.34 157.995 119.529 157.429 119.906 156.908C120.284 156.387 120.818 155.98 121.508 155.688C122.198 155.388 122.973 155.238 123.832 155.238C125.134 155.238 126.166 155.567 126.928 156.225C127.696 156.876 128.08 157.794 128.08 158.979V163.559C128.087 164.561 128.227 165.32 128.5 165.834V166H125.648ZM123.314 164.037C123.731 164.037 124.115 163.946 124.467 163.764C124.818 163.575 125.079 163.324 125.248 163.012V161.195H124.193C122.781 161.195 122.029 161.684 121.938 162.66L121.928 162.826C121.928 163.178 122.051 163.467 122.299 163.695C122.546 163.923 122.885 164.037 123.314 164.037ZM133.627 152.836V155.434H135.434V157.504H133.627V162.777C133.627 163.168 133.702 163.448 133.852 163.617C134.001 163.786 134.288 163.871 134.711 163.871C135.023 163.871 135.3 163.848 135.541 163.803V165.941C134.988 166.111 134.418 166.195 133.832 166.195C131.853 166.195 130.844 165.196 130.805 163.197V157.504H129.262V155.434H130.805V152.836H133.627ZM140.385 152.836V155.434H142.191V157.504H140.385V162.777C140.385 163.168 140.46 163.448 140.609 163.617C140.759 163.786 141.046 163.871 141.469 163.871C141.781 163.871 142.058 163.848 142.299 163.803V165.941C141.745 166.111 141.176 166.195 140.59 166.195C138.611 166.195 137.602 165.196 137.562 163.197V157.504H136.02V155.434H137.562V152.836H140.385ZM146.742 166H143.91V151H146.742V166ZM153.939 166.195C152.39 166.195 151.127 165.72 150.15 164.77C149.18 163.819 148.695 162.553 148.695 160.971V160.697C148.695 159.636 148.9 158.689 149.311 157.855C149.721 157.016 150.3 156.371 151.049 155.922C151.804 155.466 152.663 155.238 153.627 155.238C155.072 155.238 156.208 155.694 157.035 156.605C157.868 157.517 158.285 158.809 158.285 160.482V161.635H151.557C151.648 162.325 151.921 162.878 152.377 163.295C152.839 163.712 153.422 163.92 154.125 163.92C155.212 163.92 156.062 163.526 156.674 162.738L158.061 164.291C157.637 164.89 157.064 165.359 156.342 165.697C155.619 166.029 154.818 166.195 153.939 166.195ZM153.617 157.523C153.057 157.523 152.602 157.712 152.25 158.09C151.905 158.467 151.684 159.008 151.586 159.711H155.512V159.486C155.499 158.861 155.329 158.38 155.004 158.041C154.678 157.696 154.216 157.523 153.617 157.523ZM165.619 163.08C165.619 162.735 165.447 162.465 165.102 162.27C164.763 162.068 164.216 161.889 163.461 161.732C160.948 161.205 159.691 160.137 159.691 158.529C159.691 157.592 160.079 156.811 160.854 156.186C161.635 155.554 162.654 155.238 163.91 155.238C165.251 155.238 166.322 155.554 167.123 156.186C167.93 156.817 168.334 157.637 168.334 158.646H165.512C165.512 158.243 165.382 157.911 165.121 157.65C164.861 157.383 164.454 157.25 163.9 157.25C163.425 157.25 163.057 157.357 162.797 157.572C162.536 157.787 162.406 158.061 162.406 158.393C162.406 158.705 162.553 158.959 162.846 159.154C163.145 159.343 163.646 159.509 164.35 159.652C165.053 159.789 165.645 159.945 166.127 160.121C167.618 160.668 168.363 161.615 168.363 162.963C168.363 163.926 167.95 164.708 167.123 165.307C166.296 165.899 165.229 166.195 163.92 166.195C163.035 166.195 162.247 166.039 161.557 165.727C160.873 165.408 160.336 164.975 159.945 164.428C159.555 163.874 159.359 163.279 159.359 162.641H162.035C162.061 163.142 162.247 163.526 162.592 163.793C162.937 164.06 163.399 164.193 163.979 164.193C164.519 164.193 164.926 164.092 165.199 163.891C165.479 163.682 165.619 163.412 165.619 163.08Z" fill="white"/>
<path d="M139.067 61H133.209C132.696 61 132.205 61.2037 131.842 61.5664L94.3438 99.0647L102.936 107.657L140.435 70.1589C140.797 69.7963 141.001 69.3045 141.001 68.7916V62.9336C141.001 61.8657 140.135 61 139.067 61V61Z" fill="#FFFAFA"/>
<path d="M82.7075 110.718C81.56 111.866 80.9496 113.366 80.8923 114.878C79.3981 114.92 77.9163 115.51 76.7757 116.65C74.4081 119.018 74.4081 122.856 76.7757 125.224C79.1433 127.592 82.9822 127.592 85.3499 125.224C86.4835 124.091 87.0729 122.62 87.121 121.135C88.6064 121.087 90.0775 120.497 91.2112 119.363L94.7226 115.851L86.1484 107.277L82.7075 110.718Z" fill="#FFFAFA"/>
<path d="M110.728 105.327L119.319 96.7354L121.649 99.0652L113.057 107.656L110.728 105.327Z" fill="#FFFAFA"/>
<path d="M96.6729 91.2669L105.266 82.6743L84.1591 61.5679C83.7964 61.2051 83.3047 61.0015 82.7918 61.0015H76.9336C75.8657 61.0015 75 61.8672 75 62.9351V68.7931C75 69.306 75.2037 69.7978 75.5664 70.1603L96.6729 91.2669Z" fill="#FFFAFA"/>
<path d="M135.108 114.878C135.051 113.366 134.44 111.866 133.293 110.718L129.852 107.277L121.277 115.851L124.789 119.363C125.923 120.497 127.394 121.087 128.879 121.135C128.927 122.62 129.517 124.091 130.65 125.224C133.018 127.592 136.857 127.592 139.224 125.224C141.592 122.857 141.592 119.018 139.224 116.65C138.084 115.51 136.602 114.92 135.108 114.878Z" fill="#FFFAFA"/>
<path d="M132.151 96.7758C131.396 96.0206 130.171 96.0208 129.416 96.7758L110.775 115.417C110.02 116.172 110.02 117.396 110.775 118.151C111.53 118.906 112.755 118.906 113.51 118.151L132.151 99.5103C132.906 98.7553 132.906 97.5309 132.151 96.7758Z" fill="#FFFAFA"/>
<path d="M86.584 96.7758C85.829 96.0208 84.6047 96.0206 83.8496 96.7758C83.0944 97.5309 83.0944 98.7551 83.8496 99.5103L102.491 118.151C103.246 118.906 104.47 118.906 105.225 118.151C105.98 117.396 105.98 116.172 105.225 115.417L86.584 96.7758Z" fill="#FFFAFA"/>
</svg>
