<svg width="216" height="216" viewBox="0 0 216 216" fill="none" xmlns="http://www.w3.org/2000/svg">
<circle cx="108" cy="108" r="108" fill="#D8DBBA"/>
<path d="M56.9727 154.154H52.6172V166H49.6875V154.154H45.3906V151.781H56.9727V154.154ZM55.9961 160.619C55.9961 159.571 56.1979 158.637 56.6016 157.816C57.0052 156.996 57.5846 156.361 58.3398 155.912C59.1016 155.463 59.9837 155.238 60.9863 155.238C62.4121 155.238 63.5742 155.674 64.4727 156.547C65.3776 157.419 65.8822 158.604 65.9863 160.102L66.0059 160.824C66.0059 162.445 65.5534 163.747 64.6484 164.73C63.7435 165.707 62.5293 166.195 61.0059 166.195C59.4824 166.195 58.265 165.707 57.3535 164.73C56.4486 163.754 55.9961 162.426 55.9961 160.746V160.619ZM58.8184 160.824C58.8184 161.827 59.0072 162.595 59.3848 163.129C59.7624 163.656 60.3027 163.92 61.0059 163.92C61.6895 163.92 62.2233 163.66 62.6074 163.139C62.9915 162.611 63.1836 161.771 63.1836 160.619C63.1836 159.636 62.9915 158.874 62.6074 158.334C62.2233 157.794 61.6829 157.523 60.9863 157.523C60.2962 157.523 59.7624 157.794 59.3848 158.334C59.0072 158.868 58.8184 159.698 58.8184 160.824ZM77.2559 160.814C77.2559 162.442 76.8848 163.747 76.1426 164.73C75.4069 165.707 74.4108 166.195 73.1543 166.195C72.0866 166.195 71.224 165.824 70.5664 165.082V170.062H67.7441V155.434H70.3613L70.459 156.469C71.1426 155.648 72.0345 155.238 73.1348 155.238C74.4368 155.238 75.4492 155.72 76.1719 156.684C76.8945 157.647 77.2559 158.975 77.2559 160.668V160.814ZM74.4336 160.609C74.4336 159.626 74.2578 158.868 73.9062 158.334C73.5612 157.8 73.0566 157.533 72.3926 157.533C71.5072 157.533 70.8984 157.872 70.5664 158.549V162.875C70.9115 163.572 71.5267 163.92 72.4121 163.92C73.7598 163.92 74.4336 162.816 74.4336 160.609ZM84.2969 159.008L85.1172 151.781H93.0859V154.135H87.4316L87.0801 157.191C87.7507 156.833 88.4635 156.654 89.2188 156.654C90.5729 156.654 91.6341 157.074 92.4023 157.914C93.1706 158.754 93.5547 159.929 93.5547 161.439C93.5547 162.357 93.3594 163.181 92.9688 163.91C92.5846 164.633 92.0312 165.196 91.3086 165.6C90.5859 165.997 89.7331 166.195 88.75 166.195C87.8906 166.195 87.0931 166.023 86.3574 165.678C85.6217 165.326 85.0391 164.835 84.6094 164.203C84.1862 163.572 83.9616 162.852 83.9355 162.045H86.7285C86.7871 162.637 86.9922 163.1 87.3438 163.432C87.7018 163.757 88.1673 163.92 88.7402 163.92C89.3783 163.92 89.8698 163.692 90.2148 163.236C90.5599 162.774 90.7324 162.123 90.7324 161.283C90.7324 160.476 90.5339 159.857 90.1367 159.428C89.7396 158.998 89.1764 158.783 88.4473 158.783C87.7767 158.783 87.2331 158.959 86.8164 159.311L86.543 159.564L84.2969 159.008ZM109.648 162.162L111.035 155.434H113.76L111.064 166H108.701L106.699 159.35L104.697 166H102.344L99.6484 155.434H102.373L103.75 162.152L105.684 155.434H107.725L109.648 162.162ZM118.145 166H115.312V155.434H118.145V166ZM115.146 152.699C115.146 152.276 115.286 151.928 115.566 151.654C115.853 151.381 116.24 151.244 116.729 151.244C117.21 151.244 117.594 151.381 117.881 151.654C118.167 151.928 118.311 152.276 118.311 152.699C118.311 153.129 118.164 153.48 117.871 153.754C117.585 154.027 117.204 154.164 116.729 154.164C116.253 154.164 115.869 154.027 115.576 153.754C115.29 153.48 115.146 153.129 115.146 152.699ZM123.076 155.434L123.164 156.654C123.919 155.71 124.932 155.238 126.201 155.238C127.321 155.238 128.154 155.567 128.701 156.225C129.248 156.882 129.528 157.865 129.541 159.174V166H126.719V159.242C126.719 158.643 126.589 158.21 126.328 157.943C126.068 157.67 125.635 157.533 125.029 157.533C124.235 157.533 123.639 157.872 123.242 158.549V166H120.42V155.434H123.076ZM134.287 155.434L134.375 156.654C135.13 155.71 136.143 155.238 137.412 155.238C138.532 155.238 139.365 155.567 139.912 156.225C140.459 156.882 140.739 157.865 140.752 159.174V166H137.93V159.242C137.93 158.643 137.799 158.21 137.539 157.943C137.279 157.67 136.846 157.533 136.24 157.533C135.446 157.533 134.85 157.872 134.453 158.549V166H131.631V155.434H134.287ZM147.764 166.195C146.214 166.195 144.951 165.72 143.975 164.77C143.005 163.819 142.52 162.553 142.52 160.971V160.697C142.52 159.636 142.725 158.689 143.135 157.855C143.545 157.016 144.124 156.371 144.873 155.922C145.628 155.466 146.488 155.238 147.451 155.238C148.896 155.238 150.033 155.694 150.859 156.605C151.693 157.517 152.109 158.809 152.109 160.482V161.635H145.381C145.472 162.325 145.745 162.878 146.201 163.295C146.663 163.712 147.246 163.92 147.949 163.92C149.036 163.92 149.886 163.526 150.498 162.738L151.885 164.291C151.462 164.89 150.889 165.359 150.166 165.697C149.443 166.029 148.643 166.195 147.764 166.195ZM147.441 157.523C146.882 157.523 146.426 157.712 146.074 158.09C145.729 158.467 145.508 159.008 145.41 159.711H149.336V159.486C149.323 158.861 149.154 158.38 148.828 158.041C148.503 157.696 148.04 157.523 147.441 157.523ZM159.658 158.08C159.274 158.028 158.936 158.002 158.643 158.002C157.575 158.002 156.875 158.363 156.543 159.086V166H153.721V155.434H156.387L156.465 156.693C157.031 155.723 157.816 155.238 158.818 155.238C159.131 155.238 159.424 155.281 159.697 155.365L159.658 158.08ZM166.748 163.08C166.748 162.735 166.576 162.465 166.23 162.27C165.892 162.068 165.345 161.889 164.59 161.732C162.077 161.205 160.82 160.137 160.82 158.529C160.82 157.592 161.208 156.811 161.982 156.186C162.764 155.554 163.783 155.238 165.039 155.238C166.38 155.238 167.451 155.554 168.252 156.186C169.059 156.817 169.463 157.637 169.463 158.646H166.641C166.641 158.243 166.51 157.911 166.25 157.65C165.99 157.383 165.583 157.25 165.029 157.25C164.554 157.25 164.186 157.357 163.926 157.572C163.665 157.787 163.535 158.061 163.535 158.393C163.535 158.705 163.682 158.959 163.975 159.154C164.274 159.343 164.775 159.509 165.479 159.652C166.182 159.789 166.774 159.945 167.256 160.121C168.747 160.668 169.492 161.615 169.492 162.963C169.492 163.926 169.079 164.708 168.252 165.307C167.425 165.899 166.357 166.195 165.049 166.195C164.163 166.195 163.376 166.039 162.686 165.727C162.002 165.408 161.465 164.975 161.074 164.428C160.684 163.874 160.488 163.279 160.488 162.641H163.164C163.19 163.142 163.376 163.526 163.721 163.793C164.066 164.06 164.528 164.193 165.107 164.193C165.648 164.193 166.055 164.092 166.328 163.891C166.608 163.682 166.748 163.412 166.748 163.08Z" fill="white"/>
<path d="M115.596 127.63C114.612 127.63 113.812 128.43 113.812 129.414C113.812 130.399 114.612 131.198 115.596 131.198C116.581 131.198 117.38 130.399 117.38 129.414C117.38 128.43 116.581 127.63 115.596 127.63Z" fill="white"/>
<path d="M140.57 55.2057H135.219V52.3516C135.219 49.4007 132.818 47 129.867 47H87.0547C84.1038 47 81.7031 49.4007 81.7031 52.3516V55.2057H76.3516C73.4007 55.2057 71 57.6064 71 60.5573C71 72.1625 76.4304 80.6911 85.2402 83.0656C88.2602 89.7131 93.0352 95.3642 99.0961 99.4476C100.492 100.388 101.326 101.999 101.326 103.755V113.584C100.103 113.898 98.9808 114.533 98.0645 115.45C96.7164 116.798 95.974 118.59 95.974 120.495H94.1901C91.2393 120.495 88.8385 122.896 88.8385 125.846V136.549C88.8385 137.535 89.6374 138.333 90.6224 138.333H126.299C127.285 138.333 128.083 137.535 128.083 136.549V125.846C128.083 122.896 125.683 120.495 122.732 120.495H120.948C120.948 117.176 118.67 114.379 115.596 113.585V103.764C115.596 102.002 116.43 100.388 117.828 99.4478C123.889 95.364 128.664 89.7128 131.684 83.0651C140.492 80.6897 145.922 72.1616 145.922 60.5573C145.922 57.6064 143.521 55.2057 140.57 55.2057ZM74.5677 60.5573C74.5677 59.5737 75.3679 58.7734 76.3516 58.7734H81.7031V66.7473C81.7031 70.8136 82.3191 74.7955 83.5351 78.6302C77.8584 75.8183 74.5677 69.3242 74.5677 60.5573ZM122.732 124.062C123.715 124.062 124.516 124.863 124.516 125.846V134.766H92.4062V125.846C92.4062 124.863 93.2065 124.062 94.1901 124.062H122.732ZM131.651 66.7473C131.651 71.62 130.681 76.3615 128.767 80.8397C126.045 87.2111 121.573 92.6224 115.835 96.4886C113.451 98.0928 112.029 100.813 112.029 103.764V115.143C112.029 116.128 112.827 116.927 113.812 116.927C115.78 116.927 117.38 118.528 117.38 120.495H99.5417C99.5417 119.543 99.9131 118.647 100.587 117.973C101.228 117.331 102.07 116.964 102.97 116.93C103.016 116.933 103.062 116.935 103.109 116.935C104.094 116.935 104.893 116.128 104.893 115.143V103.755C104.893 100.81 103.471 98.0937 101.09 96.4889C95.3507 92.6226 90.8786 87.2113 88.156 80.8394C86.2416 76.3628 85.2708 71.6215 85.2708 66.7473V52.3516C85.2708 51.3679 86.0711 50.5677 87.0547 50.5677H129.867C130.851 50.5677 131.651 51.3679 131.651 52.3516V66.7473ZM133.387 78.6299C134.603 74.7942 135.219 70.8125 135.219 66.7473V58.7734H140.57C141.554 58.7734 142.354 59.5737 142.354 60.5573C142.354 69.3237 139.064 75.8176 133.387 78.6299Z" fill="white"/>
<path d="M122.578 68.0784C122.368 67.4325 121.81 66.9618 121.137 66.8644L113.439 65.7469L109.996 58.7694C109.695 58.1604 109.075 57.7749 108.396 57.7749C107.717 57.7749 107.097 58.1604 106.796 58.7694L103.353 65.7469L95.6546 66.8644C94.9824 66.9619 94.4242 67.4327 94.2143 68.0784C94.0045 68.7244 94.1795 69.4333 94.6658 69.9073L100.237 75.3373L98.9224 83.0056C98.8077 83.6749 99.0828 84.3511 99.6322 84.7503C100.182 85.1494 100.91 85.202 101.511 84.8861L108.396 81.2661L115.283 84.8861C115.888 85.204 116.616 85.1469 117.162 84.7502C117.711 84.3509 117.986 83.6745 117.871 83.0052L116.555 75.3371L122.126 69.9073C122.613 69.4333 122.787 68.7244 122.578 68.0784ZM113.393 73.4368C112.972 73.8467 112.78 74.4373 112.88 75.0162L113.743 80.0461L109.226 77.6717C108.706 77.3985 108.085 77.3985 107.566 77.6718L103.05 80.0461L103.913 75.0159C104.012 74.437 103.82 73.8465 103.4 73.4368L99.7455 69.8755L104.794 69.1427C105.375 69.0583 105.877 68.6933 106.137 68.1667L108.396 63.5896L110.655 68.1667C110.915 68.6933 111.417 69.0583 111.998 69.1427L117.047 69.8755L113.393 73.4368Z" fill="white"/>
<path d="M108.461 127.63H101.326C100.341 127.63 99.542 128.429 99.542 129.414C99.542 130.399 100.341 131.198 101.326 131.198H108.461C109.446 131.198 110.245 130.399 110.245 129.414C110.245 128.429 109.446 127.63 108.461 127.63Z" fill="white"/>
</svg>
