<svg width="216" height="216" viewBox="0 0 216 216" fill="none" xmlns="http://www.w3.org/2000/svg">
<circle cx="108" cy="108" r="108" fill="#D8DBBA"/>
<path d="M31.1992 163.646H37.4199V166H28.2695V151.781H31.1992V163.646ZM43.7871 166.195C42.2376 166.195 40.9746 165.72 39.998 164.77C39.028 163.819 38.543 162.553 38.543 160.971V160.697C38.543 159.636 38.748 158.689 39.1582 157.855C39.5684 157.016 40.1478 156.371 40.8965 155.922C41.6517 155.466 42.5111 155.238 43.4746 155.238C44.9199 155.238 46.056 155.694 46.8828 156.605C47.7161 157.517 48.1328 158.809 48.1328 160.482V161.635H41.4043C41.4954 162.325 41.7689 162.878 42.2246 163.295C42.6868 163.712 43.2695 163.92 43.9727 163.92C45.0599 163.92 45.9095 163.526 46.5215 162.738L47.9082 164.291C47.485 164.89 46.9121 165.359 46.1895 165.697C45.4668 166.029 44.666 166.195 43.7871 166.195ZM43.4648 157.523C42.9049 157.523 42.4492 157.712 42.0977 158.09C41.7526 158.467 41.5312 159.008 41.4336 159.711H45.3594V159.486C45.3464 158.861 45.1771 158.38 44.8516 158.041C44.526 157.696 44.0638 157.523 43.4648 157.523ZM55.8672 166C55.737 165.746 55.6426 165.43 55.584 165.053C54.9004 165.814 54.0117 166.195 52.918 166.195C51.8828 166.195 51.0234 165.896 50.3398 165.297C49.6628 164.698 49.3242 163.943 49.3242 163.031C49.3242 161.911 49.7376 161.052 50.5645 160.453C51.3978 159.854 52.599 159.551 54.168 159.545H55.4668V158.939C55.4668 158.451 55.3398 158.061 55.0859 157.768C54.8385 157.475 54.4447 157.328 53.9043 157.328C53.429 157.328 53.0547 157.442 52.7812 157.67C52.5143 157.898 52.3809 158.21 52.3809 158.607H49.5586C49.5586 157.995 49.7474 157.429 50.125 156.908C50.5026 156.387 51.0365 155.98 51.7266 155.688C52.4167 155.388 53.1914 155.238 54.0508 155.238C55.3529 155.238 56.3848 155.567 57.1465 156.225C57.9147 156.876 58.2988 157.794 58.2988 158.979V163.559C58.3053 164.561 58.4453 165.32 58.7188 165.834V166H55.8672ZM53.5332 164.037C53.9499 164.037 54.334 163.946 54.6855 163.764C55.0371 163.575 55.2975 163.324 55.4668 163.012V161.195H54.4121C52.9993 161.195 52.2474 161.684 52.1562 162.66L52.1465 162.826C52.1465 163.178 52.2702 163.467 52.5176 163.695C52.765 163.923 53.1035 164.037 53.5332 164.037ZM66.1895 163.08C66.1895 162.735 66.0169 162.465 65.6719 162.27C65.3333 162.068 64.7865 161.889 64.0312 161.732C61.5182 161.205 60.2617 160.137 60.2617 158.529C60.2617 157.592 60.6491 156.811 61.4238 156.186C62.2051 155.554 63.224 155.238 64.4805 155.238C65.8216 155.238 66.8926 155.554 67.6934 156.186C68.5007 156.817 68.9043 157.637 68.9043 158.646H66.082C66.082 158.243 65.9518 157.911 65.6914 157.65C65.431 157.383 65.0241 157.25 64.4707 157.25C63.9954 157.25 63.6276 157.357 63.3672 157.572C63.1068 157.787 62.9766 158.061 62.9766 158.393C62.9766 158.705 63.123 158.959 63.416 159.154C63.7155 159.343 64.2168 159.509 64.9199 159.652C65.623 159.789 66.2155 159.945 66.6973 160.121C68.1882 160.668 68.9336 161.615 68.9336 162.963C68.9336 163.926 68.5202 164.708 67.6934 165.307C66.8665 165.899 65.7988 166.195 64.4902 166.195C63.6048 166.195 62.8171 166.039 62.127 165.727C61.4434 165.408 60.9062 164.975 60.5156 164.428C60.125 163.874 59.9297 163.279 59.9297 162.641H62.6055C62.6315 163.142 62.8171 163.526 63.1621 163.793C63.5072 164.06 63.9694 164.193 64.5488 164.193C65.0892 164.193 65.4961 164.092 65.7695 163.891C66.0495 163.682 66.1895 163.412 66.1895 163.08ZM74.1387 152.836V155.434H75.9453V157.504H74.1387V162.777C74.1387 163.168 74.2135 163.448 74.3633 163.617C74.513 163.786 74.7995 163.871 75.2227 163.871C75.5352 163.871 75.8118 163.848 76.0527 163.803V165.941C75.4993 166.111 74.9297 166.195 74.3438 166.195C72.3646 166.195 71.3555 165.196 71.3164 163.197V157.504H69.7734V155.434H71.3164V152.836H74.1387ZM92.0098 160.814C92.0098 162.442 91.6387 163.747 90.8965 164.73C90.1608 165.707 89.1647 166.195 87.9082 166.195C86.8405 166.195 85.9779 165.824 85.3203 165.082V170.062H82.498V155.434H85.1152L85.2129 156.469C85.8965 155.648 86.7884 155.238 87.8887 155.238C89.1908 155.238 90.2031 155.72 90.9258 156.684C91.6484 157.647 92.0098 158.975 92.0098 160.668V160.814ZM89.1875 160.609C89.1875 159.626 89.0117 158.868 88.6602 158.334C88.3151 157.8 87.8105 157.533 87.1465 157.533C86.2611 157.533 85.6523 157.872 85.3203 158.549V162.875C85.6654 163.572 86.2806 163.92 87.166 163.92C88.5137 163.92 89.1875 162.816 89.1875 160.609ZM99.8906 166C99.7604 165.746 99.666 165.43 99.6074 165.053C98.9238 165.814 98.0352 166.195 96.9414 166.195C95.9062 166.195 95.0469 165.896 94.3633 165.297C93.6862 164.698 93.3477 163.943 93.3477 163.031C93.3477 161.911 93.7611 161.052 94.5879 160.453C95.4212 159.854 96.6224 159.551 98.1914 159.545H99.4902V158.939C99.4902 158.451 99.3633 158.061 99.1094 157.768C98.862 157.475 98.4681 157.328 97.9277 157.328C97.4525 157.328 97.0781 157.442 96.8047 157.67C96.5378 157.898 96.4043 158.21 96.4043 158.607H93.582C93.582 157.995 93.7708 157.429 94.1484 156.908C94.526 156.387 95.0599 155.98 95.75 155.688C96.4401 155.388 97.2148 155.238 98.0742 155.238C99.3763 155.238 100.408 155.567 101.17 156.225C101.938 156.876 102.322 157.794 102.322 158.979V163.559C102.329 164.561 102.469 165.32 102.742 165.834V166H99.8906ZM97.5566 164.037C97.9733 164.037 98.3574 163.946 98.709 163.764C99.0605 163.575 99.321 163.324 99.4902 163.012V161.195H98.4355C97.0228 161.195 96.2708 161.684 96.1797 162.66L96.1699 162.826C96.1699 163.178 96.2936 163.467 96.541 163.695C96.7884 163.923 97.127 164.037 97.5566 164.037ZM110.428 158.08C110.044 158.028 109.705 158.002 109.412 158.002C108.344 158.002 107.645 158.363 107.312 159.086V166H104.49V155.434H107.156L107.234 156.693C107.801 155.723 108.585 155.238 109.588 155.238C109.9 155.238 110.193 155.281 110.467 155.365L110.428 158.08ZM115.662 152.836V155.434H117.469V157.504H115.662V162.777C115.662 163.168 115.737 163.448 115.887 163.617C116.036 163.786 116.323 163.871 116.746 163.871C117.059 163.871 117.335 163.848 117.576 163.803V165.941C117.023 166.111 116.453 166.195 115.867 166.195C113.888 166.195 112.879 165.196 112.84 163.197V157.504H111.297V155.434H112.84V152.836H115.662ZM122.02 166H119.188V155.434H122.02V166ZM119.021 152.699C119.021 152.276 119.161 151.928 119.441 151.654C119.728 151.381 120.115 151.244 120.604 151.244C121.085 151.244 121.469 151.381 121.756 151.654C122.042 151.928 122.186 152.276 122.186 152.699C122.186 153.129 122.039 153.48 121.746 153.754C121.46 154.027 121.079 154.164 120.604 154.164C120.128 154.164 119.744 154.027 119.451 153.754C119.165 153.48 119.021 153.129 119.021 152.699ZM128.748 163.92C129.269 163.92 129.692 163.777 130.018 163.49C130.343 163.204 130.512 162.823 130.525 162.348H133.172C133.165 163.064 132.97 163.721 132.586 164.32C132.202 164.913 131.674 165.375 131.004 165.707C130.34 166.033 129.604 166.195 128.797 166.195C127.286 166.195 126.095 165.717 125.223 164.76C124.35 163.796 123.914 162.468 123.914 160.775V160.59C123.914 158.962 124.347 157.663 125.213 156.693C126.079 155.723 127.267 155.238 128.777 155.238C130.099 155.238 131.157 155.616 131.951 156.371C132.752 157.12 133.159 158.119 133.172 159.369H130.525C130.512 158.822 130.343 158.38 130.018 158.041C129.692 157.696 129.262 157.523 128.729 157.523C128.071 157.523 127.573 157.764 127.234 158.246C126.902 158.721 126.736 159.496 126.736 160.57V160.863C126.736 161.951 126.902 162.732 127.234 163.207C127.566 163.682 128.071 163.92 128.748 163.92ZM137.762 166H134.93V155.434H137.762V166ZM134.764 152.699C134.764 152.276 134.904 151.928 135.184 151.654C135.47 151.381 135.857 151.244 136.346 151.244C136.827 151.244 137.212 151.381 137.498 151.654C137.785 151.928 137.928 152.276 137.928 152.699C137.928 153.129 137.781 153.48 137.488 153.754C137.202 154.027 136.821 154.164 136.346 154.164C135.87 154.164 135.486 154.027 135.193 153.754C134.907 153.48 134.764 153.129 134.764 152.699ZM149.607 160.814C149.607 162.442 149.236 163.747 148.494 164.73C147.758 165.707 146.762 166.195 145.506 166.195C144.438 166.195 143.576 165.824 142.918 165.082V170.062H140.096V155.434H142.713L142.811 156.469C143.494 155.648 144.386 155.238 145.486 155.238C146.788 155.238 147.801 155.72 148.523 156.684C149.246 157.647 149.607 158.975 149.607 160.668V160.814ZM146.785 160.609C146.785 159.626 146.609 158.868 146.258 158.334C145.913 157.8 145.408 157.533 144.744 157.533C143.859 157.533 143.25 157.872 142.918 158.549V162.875C143.263 163.572 143.878 163.92 144.764 163.92C146.111 163.92 146.785 162.816 146.785 160.609ZM157.488 166C157.358 165.746 157.264 165.43 157.205 165.053C156.521 165.814 155.633 166.195 154.539 166.195C153.504 166.195 152.645 165.896 151.961 165.297C151.284 164.698 150.945 163.943 150.945 163.031C150.945 161.911 151.359 161.052 152.186 160.453C153.019 159.854 154.22 159.551 155.789 159.545H157.088V158.939C157.088 158.451 156.961 158.061 156.707 157.768C156.46 157.475 156.066 157.328 155.525 157.328C155.05 157.328 154.676 157.442 154.402 157.67C154.135 157.898 154.002 158.21 154.002 158.607H151.18C151.18 157.995 151.368 157.429 151.746 156.908C152.124 156.387 152.658 155.98 153.348 155.688C154.038 155.388 154.812 155.238 155.672 155.238C156.974 155.238 158.006 155.567 158.768 156.225C159.536 156.876 159.92 157.794 159.92 158.979V163.559C159.926 164.561 160.066 165.32 160.34 165.834V166H157.488ZM155.154 164.037C155.571 164.037 155.955 163.946 156.307 163.764C156.658 163.575 156.919 163.324 157.088 163.012V161.195H156.033C154.62 161.195 153.868 161.684 153.777 162.66L153.768 162.826C153.768 163.178 153.891 163.467 154.139 163.695C154.386 163.923 154.725 164.037 155.154 164.037ZM165.467 152.836V155.434H167.273V157.504H165.467V162.777C165.467 163.168 165.542 163.448 165.691 163.617C165.841 163.786 166.128 163.871 166.551 163.871C166.863 163.871 167.14 163.848 167.381 163.803V165.941C166.827 166.111 166.258 166.195 165.672 166.195C163.693 166.195 162.684 165.196 162.645 163.197V157.504H161.102V155.434H162.645V152.836H165.467ZM173.709 166.195C172.16 166.195 170.896 165.72 169.92 164.77C168.95 163.819 168.465 162.553 168.465 160.971V160.697C168.465 159.636 168.67 158.689 169.08 157.855C169.49 157.016 170.07 156.371 170.818 155.922C171.574 155.466 172.433 155.238 173.396 155.238C174.842 155.238 175.978 155.694 176.805 156.605C177.638 157.517 178.055 158.809 178.055 160.482V161.635H171.326C171.417 162.325 171.691 162.878 172.146 163.295C172.609 163.712 173.191 163.92 173.895 163.92C174.982 163.92 175.831 163.526 176.443 162.738L177.83 164.291C177.407 164.89 176.834 165.359 176.111 165.697C175.389 166.029 174.588 166.195 173.709 166.195ZM173.387 157.523C172.827 157.523 172.371 157.712 172.02 158.09C171.674 158.467 171.453 159.008 171.355 159.711H175.281V159.486C175.268 158.861 175.099 158.38 174.773 158.041C174.448 157.696 173.986 157.523 173.387 157.523ZM179.227 160.639C179.227 158.992 179.594 157.68 180.33 156.703C181.072 155.727 182.085 155.238 183.367 155.238C184.396 155.238 185.245 155.622 185.916 156.391V151H188.748V166H186.199L186.062 164.877C185.359 165.756 184.454 166.195 183.348 166.195C182.104 166.195 181.105 165.707 180.35 164.73C179.601 163.747 179.227 162.383 179.227 160.639ZM182.049 160.844C182.049 161.833 182.221 162.592 182.566 163.119C182.911 163.646 183.413 163.91 184.07 163.91C184.943 163.91 185.558 163.542 185.916 162.807V158.637C185.564 157.901 184.956 157.533 184.09 157.533C182.729 157.533 182.049 158.637 182.049 160.844Z" fill="white"/>
<path d="M93.2188 108.672C93.2188 107.594 93.5781 106.719 94.2969 106.047C95.0312 105.375 95.9453 105.039 97.0391 105.039C98.1484 105.039 99.0625 105.375 99.7812 106.047C100.516 106.719 100.883 107.594 100.883 108.672C100.883 109.734 100.523 110.602 99.8047 111.273C99.0859 111.93 98.1641 112.258 97.0391 112.258C95.9297 112.258 95.0156 111.93 94.2969 111.273C93.5781 110.602 93.2188 109.734 93.2188 108.672ZM93.2188 89.4766C93.2188 88.3984 93.5781 87.5234 94.2969 86.8516C95.0312 86.1797 95.9453 85.8438 97.0391 85.8438C98.1484 85.8438 99.0625 86.1797 99.7812 86.8516C100.516 87.5234 100.883 88.3984 100.883 89.4766C100.883 90.5391 100.523 91.4062 99.8047 92.0781C99.0859 92.7344 98.1641 93.0625 97.0391 93.0625C95.9297 93.0625 95.0156 92.7344 94.2969 92.0781C93.5781 91.4062 93.2188 90.5391 93.2188 89.4766ZM106.742 98.125C106.742 94.5469 107.219 91.1406 108.172 87.9062C109.125 84.6719 110.531 81.8125 112.391 79.3281C114.25 76.8281 116.266 75.0938 118.438 74.125L119.75 77.7812C117.469 79.4688 115.688 82.0781 114.406 85.6094C113.125 89.1406 112.484 93.2656 112.484 97.9844V98.7109C112.484 103.445 113.117 107.586 114.383 111.133C115.648 114.68 117.438 117.328 119.75 119.078L118.438 122.664C116.312 121.711 114.328 120.023 112.484 117.602C110.656 115.195 109.258 112.414 108.289 109.258C107.32 106.102 106.805 102.805 106.742 99.3672V98.125Z" fill="#FFFAFA"/>
</svg>
