<svg width="216" height="216" viewBox="0 0 216 216" fill="none" xmlns="http://www.w3.org/2000/svg">
<circle cx="108" cy="108" r="108" fill="#D8DBBA"/>
<path d="M56.9727 154.154H52.6172V166H49.6875V154.154H45.3906V151.781H56.9727V154.154ZM55.9961 160.619C55.9961 159.571 56.1979 158.637 56.6016 157.816C57.0052 156.996 57.5846 156.361 58.3398 155.912C59.1016 155.463 59.9837 155.238 60.9863 155.238C62.4121 155.238 63.5742 155.674 64.4727 156.547C65.3776 157.419 65.8822 158.604 65.9863 160.102L66.0059 160.824C66.0059 162.445 65.5534 163.747 64.6484 164.73C63.7435 165.707 62.5293 166.195 61.0059 166.195C59.4824 166.195 58.265 165.707 57.3535 164.73C56.4486 163.754 55.9961 162.426 55.9961 160.746V160.619ZM58.8184 160.824C58.8184 161.827 59.0072 162.595 59.3848 163.129C59.7624 163.656 60.3027 163.92 61.0059 163.92C61.6895 163.92 62.2233 163.66 62.6074 163.139C62.9915 162.611 63.1836 161.771 63.1836 160.619C63.1836 159.636 62.9915 158.874 62.6074 158.334C62.2233 157.794 61.6829 157.523 60.9863 157.523C60.2962 157.523 59.7624 157.794 59.3848 158.334C59.0072 158.868 58.8184 159.698 58.8184 160.824ZM77.2559 160.814C77.2559 162.442 76.8848 163.747 76.1426 164.73C75.4069 165.707 74.4108 166.195 73.1543 166.195C72.0866 166.195 71.224 165.824 70.5664 165.082V170.062H67.7441V155.434H70.3613L70.459 156.469C71.1426 155.648 72.0345 155.238 73.1348 155.238C74.4368 155.238 75.4492 155.72 76.1719 156.684C76.8945 157.647 77.2559 158.975 77.2559 160.668V160.814ZM74.4336 160.609C74.4336 159.626 74.2578 158.868 73.9062 158.334C73.5612 157.8 73.0566 157.533 72.3926 157.533C71.5072 157.533 70.8984 157.872 70.5664 158.549V162.875C70.9115 163.572 71.5267 163.92 72.4121 163.92C73.7598 163.92 74.4336 162.816 74.4336 160.609ZM84.2969 159.008L85.1172 151.781H93.0859V154.135H87.4316L87.0801 157.191C87.7507 156.833 88.4635 156.654 89.2188 156.654C90.5729 156.654 91.6341 157.074 92.4023 157.914C93.1706 158.754 93.5547 159.929 93.5547 161.439C93.5547 162.357 93.3594 163.181 92.9688 163.91C92.5846 164.633 92.0312 165.196 91.3086 165.6C90.5859 165.997 89.7331 166.195 88.75 166.195C87.8906 166.195 87.0931 166.023 86.3574 165.678C85.6217 165.326 85.0391 164.835 84.6094 164.203C84.1862 163.572 83.9616 162.852 83.9355 162.045H86.7285C86.7871 162.637 86.9922 163.1 87.3438 163.432C87.7018 163.757 88.1673 163.92 88.7402 163.92C89.3783 163.92 89.8698 163.692 90.2148 163.236C90.5599 162.774 90.7324 162.123 90.7324 161.283C90.7324 160.476 90.5339 159.857 90.1367 159.428C89.7396 158.998 89.1764 158.783 88.4473 158.783C87.7767 158.783 87.2331 158.959 86.8164 159.311L86.543 159.564L84.2969 159.008ZM103.438 166H100.605V151H103.438V166ZM105.332 160.619C105.332 159.571 105.534 158.637 105.938 157.816C106.341 156.996 106.921 156.361 107.676 155.912C108.438 155.463 109.32 155.238 110.322 155.238C111.748 155.238 112.91 155.674 113.809 156.547C114.714 157.419 115.218 158.604 115.322 160.102L115.342 160.824C115.342 162.445 114.889 163.747 113.984 164.73C113.079 165.707 111.865 166.195 110.342 166.195C108.818 166.195 107.601 165.707 106.689 164.73C105.785 163.754 105.332 162.426 105.332 160.746V160.619ZM108.154 160.824C108.154 161.827 108.343 162.595 108.721 163.129C109.098 163.656 109.639 163.92 110.342 163.92C111.025 163.92 111.559 163.66 111.943 163.139C112.327 162.611 112.52 161.771 112.52 160.619C112.52 159.636 112.327 158.874 111.943 158.334C111.559 157.794 111.019 157.523 110.322 157.523C109.632 157.523 109.098 157.794 108.721 158.334C108.343 158.868 108.154 159.698 108.154 160.824ZM116.641 160.619C116.641 159.571 116.842 158.637 117.246 157.816C117.65 156.996 118.229 156.361 118.984 155.912C119.746 155.463 120.628 155.238 121.631 155.238C123.057 155.238 124.219 155.674 125.117 156.547C126.022 157.419 126.527 158.604 126.631 160.102L126.65 160.824C126.65 162.445 126.198 163.747 125.293 164.73C124.388 165.707 123.174 166.195 121.65 166.195C120.127 166.195 118.91 165.707 117.998 164.73C117.093 163.754 116.641 162.426 116.641 160.746V160.619ZM119.463 160.824C119.463 161.827 119.652 162.595 120.029 163.129C120.407 163.656 120.947 163.92 121.65 163.92C122.334 163.92 122.868 163.66 123.252 163.139C123.636 162.611 123.828 161.771 123.828 160.619C123.828 159.636 123.636 158.874 123.252 158.334C122.868 157.794 122.327 157.523 121.631 157.523C120.941 157.523 120.407 157.794 120.029 158.334C119.652 158.868 119.463 159.698 119.463 160.824ZM134.111 163.08C134.111 162.735 133.939 162.465 133.594 162.27C133.255 162.068 132.708 161.889 131.953 161.732C129.44 161.205 128.184 160.137 128.184 158.529C128.184 157.592 128.571 156.811 129.346 156.186C130.127 155.554 131.146 155.238 132.402 155.238C133.743 155.238 134.814 155.554 135.615 156.186C136.423 156.817 136.826 157.637 136.826 158.646H134.004C134.004 158.243 133.874 157.911 133.613 157.65C133.353 157.383 132.946 157.25 132.393 157.25C131.917 157.25 131.549 157.357 131.289 157.572C131.029 157.787 130.898 158.061 130.898 158.393C130.898 158.705 131.045 158.959 131.338 159.154C131.637 159.343 132.139 159.509 132.842 159.652C133.545 159.789 134.137 159.945 134.619 160.121C136.11 160.668 136.855 161.615 136.855 162.963C136.855 163.926 136.442 164.708 135.615 165.307C134.788 165.899 133.721 166.195 132.412 166.195C131.527 166.195 130.739 166.039 130.049 165.727C129.365 165.408 128.828 164.975 128.438 164.428C128.047 163.874 127.852 163.279 127.852 162.641H130.527C130.553 163.142 130.739 163.526 131.084 163.793C131.429 164.06 131.891 164.193 132.471 164.193C133.011 164.193 133.418 164.092 133.691 163.891C133.971 163.682 134.111 163.412 134.111 163.08ZM143.545 166.195C141.995 166.195 140.732 165.72 139.756 164.77C138.786 163.819 138.301 162.553 138.301 160.971V160.697C138.301 159.636 138.506 158.689 138.916 157.855C139.326 157.016 139.906 156.371 140.654 155.922C141.41 155.466 142.269 155.238 143.232 155.238C144.678 155.238 145.814 155.694 146.641 156.605C147.474 157.517 147.891 158.809 147.891 160.482V161.635H141.162C141.253 162.325 141.527 162.878 141.982 163.295C142.445 163.712 143.027 163.92 143.73 163.92C144.818 163.92 145.667 163.526 146.279 162.738L147.666 164.291C147.243 164.89 146.67 165.359 145.947 165.697C145.225 166.029 144.424 166.195 143.545 166.195ZM143.223 157.523C142.663 157.523 142.207 157.712 141.855 158.09C141.51 158.467 141.289 159.008 141.191 159.711H145.117V159.486C145.104 158.861 144.935 158.38 144.609 158.041C144.284 157.696 143.822 157.523 143.223 157.523ZM155.439 158.08C155.055 158.028 154.717 158.002 154.424 158.002C153.356 158.002 152.656 158.363 152.324 159.086V166H149.502V155.434H152.168L152.246 156.693C152.812 155.723 153.597 155.238 154.6 155.238C154.912 155.238 155.205 155.281 155.479 155.365L155.439 158.08ZM162.529 163.08C162.529 162.735 162.357 162.465 162.012 162.27C161.673 162.068 161.126 161.889 160.371 161.732C157.858 161.205 156.602 160.137 156.602 158.529C156.602 157.592 156.989 156.811 157.764 156.186C158.545 155.554 159.564 155.238 160.82 155.238C162.161 155.238 163.232 155.554 164.033 156.186C164.84 156.817 165.244 157.637 165.244 158.646H162.422C162.422 158.243 162.292 157.911 162.031 157.65C161.771 157.383 161.364 157.25 160.811 157.25C160.335 157.25 159.967 157.357 159.707 157.572C159.447 157.787 159.316 158.061 159.316 158.393C159.316 158.705 159.463 158.959 159.756 159.154C160.055 159.343 160.557 159.509 161.26 159.652C161.963 159.789 162.555 159.945 163.037 160.121C164.528 160.668 165.273 161.615 165.273 162.963C165.273 163.926 164.86 164.708 164.033 165.307C163.206 165.899 162.139 166.195 160.83 166.195C159.945 166.195 159.157 166.039 158.467 165.727C157.783 165.408 157.246 164.975 156.855 164.428C156.465 163.874 156.27 163.279 156.27 162.641H158.945C158.971 163.142 159.157 163.526 159.502 163.793C159.847 164.06 160.309 164.193 160.889 164.193C161.429 164.193 161.836 164.092 162.109 163.891C162.389 163.682 162.529 163.412 162.529 163.08Z" fill="white"/>
<path d="M79.9102 82.6426C79.043 83.8848 77.8301 84.8164 76.2715 85.4375C74.7246 86.0469 72.9199 86.3516 70.8574 86.3516C68.7715 86.3516 66.9199 85.8652 65.3027 84.8926C63.6855 83.9082 62.4316 82.5137 61.541 80.709C60.6621 78.9043 60.2109 76.8125 60.1875 74.4336V72.2012C60.1875 68.3457 61.084 65.3574 62.877 63.2363C64.6816 61.1152 67.2129 60.0547 70.4707 60.0547C73.1426 60.0547 75.293 60.7402 76.9219 62.1113C78.5508 63.4707 79.5469 65.4043 79.9102 67.9121H76.5352C75.9023 64.5254 73.8867 62.832 70.4883 62.832C68.2266 62.832 66.5098 63.6289 65.3379 65.2227C64.1777 66.8047 63.5918 69.1016 63.5801 72.1133V74.2051C63.5801 77.0762 64.2363 79.3613 65.5488 81.0605C66.8613 82.748 68.6367 83.5918 70.875 83.5918C72.1406 83.5918 73.248 83.4512 74.1973 83.1699C75.1465 82.8887 75.9316 82.4141 76.5527 81.7461V75.998H70.6289V73.2559H79.9102V82.6426ZM99.6855 79.3203H88.9629L86.5547 86H83.0742L92.8477 60.4062H95.8008L105.592 86H102.129L99.6855 79.3203ZM89.9824 76.543H98.6836L94.3242 64.5723L89.9824 76.543ZM113.396 60.4062L121.764 81.2891L130.131 60.4062H134.508V86H131.133V76.0332L131.449 65.2754L123.047 86H120.463L112.078 65.3281L112.412 76.0332V86H109.037V60.4062H113.396ZM154.934 74.1699H143.842V83.2402H156.727V86H140.467V60.4062H156.551V63.1836H143.842V71.4102H154.934V74.1699ZM85.6934 116.029C85.6934 118.537 85.2715 120.729 84.4277 122.604C83.584 124.467 82.3887 125.891 80.8418 126.875C79.2949 127.859 77.4902 128.352 75.4277 128.352C73.4121 128.352 71.625 127.859 70.0664 126.875C68.5078 125.879 67.2949 124.467 66.4277 122.639C65.5723 120.799 65.1328 118.672 65.1094 116.258V114.412C65.1094 111.951 65.5371 109.777 66.3926 107.891C67.248 106.004 68.4551 104.562 70.0137 103.566C71.584 102.559 73.377 102.055 75.3926 102.055C77.4434 102.055 79.248 102.553 80.8066 103.549C82.377 104.533 83.584 105.969 84.4277 107.855C85.2715 109.73 85.6934 111.916 85.6934 114.412V116.029ZM82.3359 114.377C82.3359 111.342 81.7266 109.016 80.5078 107.398C79.2891 105.77 77.584 104.955 75.3926 104.955C73.2598 104.955 71.5781 105.77 70.3477 107.398C69.1289 109.016 68.502 111.266 68.4668 114.148V116.029C68.4668 118.971 69.082 121.285 70.3125 122.973C71.5547 124.648 73.2598 125.486 75.4277 125.486C77.6074 125.486 79.2949 124.695 80.4902 123.113C81.6855 121.52 82.3008 119.24 82.3359 116.275V114.377ZM98.8418 123.518L106.154 102.406H109.846L100.354 128H97.3652L87.8906 102.406H91.5645L98.8418 123.518ZM127.758 116.17H116.666V125.24H129.551V128H113.291V102.406H129.375V105.184H116.666V113.41H127.758V116.17ZM143.139 117.646H137.127V128H133.734V102.406H142.207C145.09 102.406 147.305 103.062 148.852 104.375C150.41 105.688 151.189 107.598 151.189 110.105C151.189 111.699 150.756 113.088 149.889 114.271C149.033 115.455 147.838 116.34 146.303 116.926L152.314 127.789V128H148.693L143.139 117.646ZM137.127 114.887H142.312C143.988 114.887 145.318 114.453 146.303 113.586C147.299 112.719 147.797 111.559 147.797 110.105C147.797 108.523 147.322 107.311 146.373 106.467C145.436 105.623 144.076 105.195 142.295 105.184H137.127V114.887Z" fill="#FFFAFA"/>
</svg>
