<svg width="134" height="127" viewBox="0 0 134 127" fill="none" xmlns="http://www.w3.org/2000/svg">
<path d="M45.1738 94.8984L47.0879 84.7812H50.0078L46.8535 99H43.9043L41.5898 89.4883L39.2754 99H36.3262L33.1719 84.7812H36.0918L38.0156 94.8789L40.3594 84.7812H42.8398L45.1738 94.8984ZM54.3926 99H51.5605V88.4336H54.3926V99ZM51.3945 85.6992C51.3945 85.276 51.5345 84.9277 51.8145 84.6543C52.1009 84.3809 52.4883 84.2441 52.9766 84.2441C53.4583 84.2441 53.8424 84.3809 54.1289 84.6543C54.4154 84.9277 54.5586 85.276 54.5586 85.6992C54.5586 86.1289 54.4121 86.4805 54.1191 86.7539C53.8327 87.0273 53.4518 87.1641 52.9766 87.1641C52.5013 87.1641 52.1172 87.0273 51.8242 86.7539C51.5378 86.4805 51.3945 86.1289 51.3945 85.6992ZM59.3242 88.4336L59.4121 89.6543C60.1673 88.7103 61.1797 88.2383 62.4492 88.2383C63.569 88.2383 64.4023 88.5671 64.9492 89.2246C65.4961 89.8822 65.776 90.8652 65.7891 92.1738V99H62.9668V92.2422C62.9668 91.6432 62.8366 91.2103 62.5762 90.9434C62.3158 90.6699 61.8828 90.5332 61.2773 90.5332C60.4831 90.5332 59.8874 90.8717 59.4902 91.5488V99H56.668V88.4336H59.3242ZM70.5352 88.4336L70.623 89.6543C71.3783 88.7103 72.3906 88.2383 73.6602 88.2383C74.7799 88.2383 75.6133 88.5671 76.1602 89.2246C76.707 89.8822 76.987 90.8652 77 92.1738V99H74.1777V92.2422C74.1777 91.6432 74.0475 91.2103 73.7871 90.9434C73.5267 90.6699 73.0938 90.5332 72.4883 90.5332C71.694 90.5332 71.0983 90.8717 70.7012 91.5488V99H67.8789V88.4336H70.5352ZM84.0117 99.1953C82.4622 99.1953 81.1992 98.7201 80.2227 97.7695C79.2526 96.819 78.7676 95.5527 78.7676 93.9707V93.6973C78.7676 92.6361 78.9727 91.6888 79.3828 90.8555C79.793 90.0156 80.3724 89.3711 81.1211 88.9219C81.8763 88.4661 82.7357 88.2383 83.6992 88.2383C85.1445 88.2383 86.2806 88.694 87.1074 89.6055C87.9408 90.5169 88.3574 91.8092 88.3574 93.4824V94.6348H81.6289C81.7201 95.3249 81.9935 95.8783 82.4492 96.2949C82.9115 96.7116 83.4941 96.9199 84.1973 96.9199C85.2845 96.9199 86.1341 96.526 86.7461 95.7383L88.1328 97.291C87.7096 97.89 87.1367 98.3587 86.4141 98.6973C85.6914 99.0293 84.8906 99.1953 84.0117 99.1953ZM83.6895 90.5234C83.1296 90.5234 82.6738 90.7122 82.3223 91.0898C81.9772 91.4674 81.7559 92.0078 81.6582 92.7109H85.584V92.4863C85.571 91.8613 85.4017 91.3796 85.0762 91.041C84.7507 90.696 84.2884 90.5234 83.6895 90.5234ZM95.9062 91.0801C95.5221 91.028 95.1836 91.002 94.8906 91.002C93.8229 91.002 93.123 91.3633 92.791 92.0859V99H89.9688V88.4336H92.6348L92.7129 89.6934C93.2793 88.7233 94.0638 88.2383 95.0664 88.2383C95.3789 88.2383 95.6719 88.2806 95.9453 88.3652L95.9062 91.0801ZM5.75977 119.92C6.2806 119.92 6.70378 119.777 7.0293 119.49C7.35482 119.204 7.52409 118.823 7.53711 118.348H10.1836C10.1771 119.064 9.98177 119.721 9.59766 120.32C9.21354 120.913 8.6862 121.375 8.01562 121.707C7.35156 122.033 6.61589 122.195 5.80859 122.195C4.29818 122.195 3.10677 121.717 2.23438 120.76C1.36198 119.796 0.925781 118.468 0.925781 116.775V116.59C0.925781 114.962 1.35872 113.663 2.22461 112.693C3.09049 111.723 4.27865 111.238 5.78906 111.238C7.11068 111.238 8.16862 111.616 8.96289 112.371C9.76367 113.12 10.1706 114.119 10.1836 115.369H7.53711C7.52409 114.822 7.35482 114.38 7.0293 114.041C6.70378 113.696 6.27409 113.523 5.74023 113.523C5.08268 113.523 4.58464 113.764 4.24609 114.246C3.91406 114.721 3.74805 115.496 3.74805 116.57V116.863C3.74805 117.951 3.91406 118.732 4.24609 119.207C4.57812 119.682 5.08268 119.92 5.75977 119.92ZM11.3555 116.619C11.3555 115.571 11.5573 114.637 11.9609 113.816C12.3646 112.996 12.944 112.361 13.6992 111.912C14.4609 111.463 15.3431 111.238 16.3457 111.238C17.7715 111.238 18.9336 111.674 19.832 112.547C20.737 113.419 21.2415 114.604 21.3457 116.102L21.3652 116.824C21.3652 118.445 20.9128 119.747 20.0078 120.73C19.1029 121.707 17.8887 122.195 16.3652 122.195C14.8418 122.195 13.6243 121.707 12.7129 120.73C11.8079 119.754 11.3555 118.426 11.3555 116.746V116.619ZM14.1777 116.824C14.1777 117.827 14.3665 118.595 14.7441 119.129C15.1217 119.656 15.6621 119.92 16.3652 119.92C17.0488 119.92 17.5827 119.66 17.9668 119.139C18.3509 118.611 18.543 117.771 18.543 116.619C18.543 115.636 18.3509 114.874 17.9668 114.334C17.5827 113.794 17.0423 113.523 16.3457 113.523C15.6556 113.523 15.1217 113.794 14.7441 114.334C14.3665 114.868 14.1777 115.698 14.1777 116.824ZM25.75 111.434L25.8379 112.615C26.5866 111.697 27.599 111.238 28.875 111.238C30.2357 111.238 31.1699 111.775 31.6777 112.85C32.4199 111.775 33.4779 111.238 34.8516 111.238C35.9974 111.238 36.8503 111.574 37.4102 112.244C37.9701 112.908 38.25 113.911 38.25 115.252V122H35.418V115.262C35.418 114.663 35.3008 114.227 35.0664 113.953C34.832 113.673 34.4186 113.533 33.8262 113.533C32.9798 113.533 32.3939 113.937 32.0684 114.744L32.0781 122H29.2559V115.271C29.2559 114.66 29.1354 114.217 28.8945 113.943C28.6536 113.67 28.2435 113.533 27.6641 113.533C26.8633 113.533 26.2839 113.865 25.9258 114.529V122H23.1035V111.434H25.75ZM43.0742 111.434L43.1621 112.615C43.9108 111.697 44.9232 111.238 46.1992 111.238C47.5599 111.238 48.4941 111.775 49.002 112.85C49.7441 111.775 50.8021 111.238 52.1758 111.238C53.3216 111.238 54.1745 111.574 54.7344 112.244C55.2943 112.908 55.5742 113.911 55.5742 115.252V122H52.7422V115.262C52.7422 114.663 52.625 114.227 52.3906 113.953C52.1562 113.673 51.7428 113.533 51.1504 113.533C50.304 113.533 49.7181 113.937 49.3926 114.744L49.4023 122H46.5801V115.271C46.5801 114.66 46.4596 114.217 46.2188 113.943C45.9779 113.67 45.5677 113.533 44.9883 113.533C44.1875 113.533 43.6081 113.865 43.25 114.529V122H40.4277V111.434H43.0742ZM57.3125 116.619C57.3125 115.571 57.5143 114.637 57.918 113.816C58.3216 112.996 58.901 112.361 59.6562 111.912C60.418 111.463 61.3001 111.238 62.3027 111.238C63.7285 111.238 64.8906 111.674 65.7891 112.547C66.694 113.419 67.1986 114.604 67.3027 116.102L67.3223 116.824C67.3223 118.445 66.8698 119.747 65.9648 120.73C65.0599 121.707 63.8457 122.195 62.3223 122.195C60.7988 122.195 59.5814 121.707 58.6699 120.73C57.765 119.754 57.3125 118.426 57.3125 116.746V116.619ZM60.1348 116.824C60.1348 117.827 60.3236 118.595 60.7012 119.129C61.0788 119.656 61.6191 119.92 62.3223 119.92C63.0059 119.92 63.5397 119.66 63.9238 119.139C64.3079 118.611 64.5 117.771 64.5 116.619C64.5 115.636 64.3079 114.874 63.9238 114.334C63.5397 113.794 62.9993 113.523 62.3027 113.523C61.6126 113.523 61.0788 113.794 60.7012 114.334C60.3236 114.868 60.1348 115.698 60.1348 116.824ZM71.6582 111.434L71.7461 112.654C72.5013 111.71 73.5137 111.238 74.7832 111.238C75.903 111.238 76.7363 111.567 77.2832 112.225C77.8301 112.882 78.11 113.865 78.123 115.174V122H75.3008V115.242C75.3008 114.643 75.1706 114.21 74.9102 113.943C74.6497 113.67 74.2168 113.533 73.6113 113.533C72.8171 113.533 72.2214 113.872 71.8242 114.549V122H69.002V111.434H71.6582ZM86.3945 122C86.2643 121.746 86.1699 121.43 86.1113 121.053C85.4277 121.814 84.5391 122.195 83.4453 122.195C82.4102 122.195 81.5508 121.896 80.8672 121.297C80.1901 120.698 79.8516 119.943 79.8516 119.031C79.8516 117.911 80.265 117.052 81.0918 116.453C81.9251 115.854 83.1263 115.551 84.6953 115.545H85.9941V114.939C85.9941 114.451 85.8672 114.061 85.6133 113.768C85.3659 113.475 84.972 113.328 84.4316 113.328C83.9564 113.328 83.582 113.442 83.3086 113.67C83.0417 113.898 82.9082 114.21 82.9082 114.607H80.0859C80.0859 113.995 80.2747 113.429 80.6523 112.908C81.0299 112.387 81.5638 111.98 82.2539 111.688C82.944 111.388 83.7188 111.238 84.5781 111.238C85.8802 111.238 86.9121 111.567 87.6738 112.225C88.4421 112.876 88.8262 113.794 88.8262 114.979V119.559C88.8327 120.561 88.9727 121.32 89.2461 121.834V122H86.3945ZM84.0605 120.037C84.4772 120.037 84.8613 119.946 85.2129 119.764C85.5645 119.575 85.8249 119.324 85.9941 119.012V117.195H84.9395C83.5267 117.195 82.7747 117.684 82.6836 118.66L82.6738 118.826C82.6738 119.178 82.7975 119.467 83.0449 119.695C83.2923 119.923 83.6309 120.037 84.0605 120.037ZM93.9727 122H91.1406V107H93.9727V122ZM99.2852 122H96.4531V111.434H99.2852V122ZM96.2871 108.699C96.2871 108.276 96.4271 107.928 96.707 107.654C96.9935 107.381 97.3809 107.244 97.8691 107.244C98.3509 107.244 98.735 107.381 99.0215 107.654C99.3079 107.928 99.4512 108.276 99.4512 108.699C99.4512 109.129 99.3047 109.48 99.0117 109.754C98.7253 110.027 98.3444 110.164 97.8691 110.164C97.3939 110.164 97.0098 110.027 96.7168 109.754C96.4303 109.48 96.2871 109.129 96.2871 108.699ZM104.998 108.836V111.434H106.805V113.504H104.998V118.777C104.998 119.168 105.073 119.448 105.223 119.617C105.372 119.786 105.659 119.871 106.082 119.871C106.395 119.871 106.671 119.848 106.912 119.803V121.941C106.359 122.111 105.789 122.195 105.203 122.195C103.224 122.195 102.215 121.196 102.176 119.197V113.504H100.633V111.434H102.176V108.836H104.998ZM111.355 122H108.523V111.434H111.355V122ZM108.357 108.699C108.357 108.276 108.497 107.928 108.777 107.654C109.064 107.381 109.451 107.244 109.939 107.244C110.421 107.244 110.805 107.381 111.092 107.654C111.378 107.928 111.521 108.276 111.521 108.699C111.521 109.129 111.375 109.48 111.082 109.754C110.796 110.027 110.415 110.164 109.939 110.164C109.464 110.164 109.08 110.027 108.787 109.754C108.501 109.48 108.357 109.129 108.357 108.699ZM118.553 122.195C117.003 122.195 115.74 121.72 114.764 120.77C113.794 119.819 113.309 118.553 113.309 116.971V116.697C113.309 115.636 113.514 114.689 113.924 113.855C114.334 113.016 114.913 112.371 115.662 111.922C116.417 111.466 117.277 111.238 118.24 111.238C119.686 111.238 120.822 111.694 121.648 112.605C122.482 113.517 122.898 114.809 122.898 116.482V117.635H116.17C116.261 118.325 116.535 118.878 116.99 119.295C117.452 119.712 118.035 119.92 118.738 119.92C119.826 119.92 120.675 119.526 121.287 118.738L122.674 120.291C122.251 120.89 121.678 121.359 120.955 121.697C120.232 122.029 119.432 122.195 118.553 122.195ZM118.23 113.523C117.671 113.523 117.215 113.712 116.863 114.09C116.518 114.467 116.297 115.008 116.199 115.711H120.125V115.486C120.112 114.861 119.943 114.38 119.617 114.041C119.292 113.696 118.829 113.523 118.23 113.523ZM130.232 119.08C130.232 118.735 130.06 118.465 129.715 118.27C129.376 118.068 128.829 117.889 128.074 117.732C125.561 117.205 124.305 116.137 124.305 114.529C124.305 113.592 124.692 112.811 125.467 112.186C126.248 111.554 127.267 111.238 128.523 111.238C129.865 111.238 130.936 111.554 131.736 112.186C132.544 112.817 132.947 113.637 132.947 114.646H130.125C130.125 114.243 129.995 113.911 129.734 113.65C129.474 113.383 129.067 113.25 128.514 113.25C128.038 113.25 127.671 113.357 127.41 113.572C127.15 113.787 127.02 114.061 127.02 114.393C127.02 114.705 127.166 114.959 127.459 115.154C127.758 115.343 128.26 115.509 128.963 115.652C129.666 115.789 130.258 115.945 130.74 116.121C132.231 116.668 132.977 117.615 132.977 118.963C132.977 119.926 132.563 120.708 131.736 121.307C130.91 121.899 129.842 122.195 128.533 122.195C127.648 122.195 126.86 122.039 126.17 121.727C125.486 121.408 124.949 120.975 124.559 120.428C124.168 119.874 123.973 119.279 123.973 118.641H126.648C126.674 119.142 126.86 119.526 127.205 119.793C127.55 120.06 128.012 120.193 128.592 120.193C129.132 120.193 129.539 120.092 129.812 119.891C130.092 119.682 130.232 119.412 130.232 119.08Z" fill="white"/>
<path d="M63.1562 46.1875C63.1979 43.7083 63.4792 41.75 64 40.3125C64.5208 38.875 65.5833 37.2812 67.1875 35.5312L71.2812 31.3125C73.0312 29.3333 73.9062 27.2083 73.9062 24.9375C73.9062 22.75 73.3333 21.0417 72.1875 19.8125C71.0417 18.5625 69.375 17.9375 67.1875 17.9375C65.0625 17.9375 63.3542 18.5 62.0625 19.625C60.7708 20.75 60.125 22.2604 60.125 24.1562H54.3438C54.3854 20.7812 55.5833 18.0625 57.9375 16C60.3125 13.9167 63.3958 12.875 67.1875 12.875C71.125 12.875 74.1875 13.9375 76.375 16.0625C78.5833 18.1667 79.6875 21.0625 79.6875 24.75C79.6875 28.3958 78 31.9896 74.625 35.5312L71.2188 38.9062C69.6979 40.5938 68.9375 43.0208 68.9375 46.1875H63.1562ZM62.9062 56.0938C62.9062 55.1562 63.1875 54.375 63.75 53.75C64.3333 53.1042 65.1875 52.7812 66.3125 52.7812C67.4375 52.7812 68.2917 53.1042 68.875 53.75C69.4583 54.375 69.75 55.1562 69.75 56.0938C69.75 57.0312 69.4583 57.8125 68.875 58.4375C68.2917 59.0417 67.4375 59.3438 66.3125 59.3438C65.1875 59.3438 64.3333 59.0417 63.75 58.4375C63.1875 57.8125 62.9062 57.0312 62.9062 56.0938Z" fill="#FFFAFA"/>
</svg>
