<svg width="124" height="110" viewBox="0 0 124 110" fill="none" xmlns="http://www.w3.org/2000/svg">
<path d="M4.19922 102.646H10.4199V105H1.26953V90.7812H4.19922V102.646ZM18.0469 105C17.9167 104.746 17.8223 104.43 17.7637 104.053C17.0801 104.814 16.1914 105.195 15.0977 105.195C14.0625 105.195 13.2031 104.896 12.5195 104.297C11.8424 103.698 11.5039 102.943 11.5039 102.031C11.5039 100.911 11.9173 100.052 12.7441 99.4531C13.5775 98.8542 14.7786 98.5514 16.3477 98.5449H17.6465V97.9395C17.6465 97.4512 17.5195 97.0605 17.2656 96.7676C17.0182 96.4746 16.6243 96.3281 16.084 96.3281C15.6087 96.3281 15.2344 96.4421 14.9609 96.6699C14.694 96.8978 14.5605 97.2103 14.5605 97.6074H11.7383C11.7383 96.9954 11.9271 96.429 12.3047 95.9082C12.6823 95.3874 13.2161 94.9805 13.9062 94.6875C14.5964 94.388 15.3711 94.2383 16.2305 94.2383C17.5326 94.2383 18.5645 94.5671 19.3262 95.2246C20.0944 95.8757 20.4785 96.7936 20.4785 97.9785V102.559C20.485 103.561 20.625 104.32 20.8984 104.834V105H18.0469ZM15.7129 103.037C16.1296 103.037 16.5137 102.946 16.8652 102.764C17.2168 102.575 17.4772 102.324 17.6465 102.012V100.195H16.5918C15.179 100.195 14.4271 100.684 14.3359 101.66L14.3262 101.826C14.3262 102.178 14.4499 102.467 14.6973 102.695C14.9447 102.923 15.2832 103.037 15.7129 103.037ZM26.0254 91.8359V94.4336H27.832V96.5039H26.0254V101.777C26.0254 102.168 26.1003 102.448 26.25 102.617C26.3997 102.786 26.6862 102.871 27.1094 102.871C27.4219 102.871 27.6986 102.848 27.9395 102.803V104.941C27.3861 105.111 26.8164 105.195 26.2305 105.195C24.2513 105.195 23.2422 104.196 23.2031 102.197V96.5039H21.6602V94.4336H23.2031V91.8359H26.0254ZM34.2676 105.195C32.7181 105.195 31.4551 104.72 30.4785 103.77C29.5085 102.819 29.0234 101.553 29.0234 99.9707V99.6973C29.0234 98.6361 29.2285 97.6888 29.6387 96.8555C30.0488 96.0156 30.6283 95.3711 31.377 94.9219C32.1322 94.4661 32.9915 94.2383 33.9551 94.2383C35.4004 94.2383 36.5365 94.694 37.3633 95.6055C38.1966 96.5169 38.6133 97.8092 38.6133 99.4824V100.635H31.8848C31.9759 101.325 32.2493 101.878 32.7051 102.295C33.1673 102.712 33.75 102.92 34.4531 102.92C35.5404 102.92 36.39 102.526 37.002 101.738L38.3887 103.291C37.9655 103.89 37.3926 104.359 36.6699 104.697C35.9473 105.029 35.1465 105.195 34.2676 105.195ZM33.9453 96.5234C33.3854 96.5234 32.9297 96.7122 32.5781 97.0898C32.2331 97.4674 32.0117 98.0078 31.9141 98.7109H35.8398V98.4863C35.8268 97.8613 35.6576 97.3796 35.332 97.041C35.0065 96.696 34.5443 96.5234 33.9453 96.5234ZM45.9473 102.08C45.9473 101.735 45.7747 101.465 45.4297 101.27C45.0911 101.068 44.5443 100.889 43.7891 100.732C41.276 100.205 40.0195 99.1374 40.0195 97.5293C40.0195 96.5918 40.4069 95.8105 41.1816 95.1855C41.9629 94.554 42.9818 94.2383 44.2383 94.2383C45.5794 94.2383 46.6504 94.554 47.4512 95.1855C48.2585 95.8171 48.6621 96.6374 48.6621 97.6465H45.8398C45.8398 97.2428 45.7096 96.9108 45.4492 96.6504C45.1888 96.3835 44.7819 96.25 44.2285 96.25C43.7533 96.25 43.3854 96.3574 43.125 96.5723C42.8646 96.7871 42.7344 97.0605 42.7344 97.3926C42.7344 97.7051 42.8809 97.959 43.1738 98.1543C43.4733 98.3431 43.9746 98.5091 44.6777 98.6523C45.3809 98.7891 45.9733 98.9453 46.4551 99.1211C47.946 99.668 48.6914 100.615 48.6914 101.963C48.6914 102.926 48.278 103.708 47.4512 104.307C46.6243 104.899 45.5566 105.195 44.248 105.195C43.3626 105.195 42.5749 105.039 41.8848 104.727C41.2012 104.408 40.6641 103.975 40.2734 103.428C39.8828 102.874 39.6875 102.279 39.6875 101.641H42.3633C42.3893 102.142 42.5749 102.526 42.9199 102.793C43.265 103.06 43.7272 103.193 44.3066 103.193C44.847 103.193 45.2539 103.092 45.5273 102.891C45.8073 102.682 45.9473 102.412 45.9473 102.08ZM53.8965 91.8359V94.4336H55.7031V96.5039H53.8965V101.777C53.8965 102.168 53.9714 102.448 54.1211 102.617C54.2708 102.786 54.5573 102.871 54.9805 102.871C55.293 102.871 55.5697 102.848 55.8105 102.803V104.941C55.2572 105.111 54.6875 105.195 54.1016 105.195C52.1224 105.195 51.1133 104.196 51.0742 102.197V96.5039H49.5312V94.4336H51.0742V91.8359H53.8965ZM71.7773 99.8145C71.7773 101.507 71.416 102.829 70.6934 103.779C69.9707 104.723 68.9616 105.195 67.666 105.195C66.5202 105.195 65.6055 104.756 64.9219 103.877L64.7949 105H62.2559V90H65.0781V95.3809C65.7292 94.6191 66.5853 94.2383 67.6465 94.2383C68.9355 94.2383 69.9447 94.7135 70.6738 95.6641C71.4095 96.6081 71.7773 97.9395 71.7773 99.6582V99.8145ZM68.9551 99.6094C68.9551 98.5417 68.7858 97.7637 68.4473 97.2754C68.1087 96.7806 67.6042 96.5332 66.9336 96.5332C66.0352 96.5332 65.4167 96.901 65.0781 97.6367V101.807C65.4232 102.549 66.0482 102.92 66.9531 102.92C67.8646 102.92 68.4635 102.471 68.75 101.572C68.8867 101.143 68.9551 100.488 68.9551 99.6094ZM79.6484 105C79.5182 104.746 79.4238 104.43 79.3652 104.053C78.6816 104.814 77.793 105.195 76.6992 105.195C75.6641 105.195 74.8047 104.896 74.1211 104.297C73.444 103.698 73.1055 102.943 73.1055 102.031C73.1055 100.911 73.5189 100.052 74.3457 99.4531C75.179 98.8542 76.3802 98.5514 77.9492 98.5449H79.248V97.9395C79.248 97.4512 79.1211 97.0605 78.8672 96.7676C78.6198 96.4746 78.2259 96.3281 77.6855 96.3281C77.2103 96.3281 76.8359 96.4421 76.5625 96.6699C76.2956 96.8978 76.1621 97.2103 76.1621 97.6074H73.3398C73.3398 96.9954 73.5286 96.429 73.9062 95.9082C74.2839 95.3874 74.8177 94.9805 75.5078 94.6875C76.1979 94.388 76.9727 94.2383 77.832 94.2383C79.1341 94.2383 80.166 94.5671 80.9277 95.2246C81.696 95.8757 82.0801 96.7936 82.0801 97.9785V102.559C82.0866 103.561 82.2266 104.32 82.5 104.834V105H79.6484ZM77.3145 103.037C77.7311 103.037 78.1152 102.946 78.4668 102.764C78.8184 102.575 79.0788 102.324 79.248 102.012V100.195H78.1934C76.7806 100.195 76.0286 100.684 75.9375 101.66L75.9277 101.826C75.9277 102.178 76.0514 102.467 76.2988 102.695C76.5462 102.923 76.8848 103.037 77.3145 103.037ZM87.627 91.8359V94.4336H89.4336V96.5039H87.627V101.777C87.627 102.168 87.7018 102.448 87.8516 102.617C88.0013 102.786 88.2878 102.871 88.7109 102.871C89.0234 102.871 89.3001 102.848 89.541 102.803V104.941C88.9876 105.111 88.418 105.195 87.832 105.195C85.8529 105.195 84.8438 104.196 84.8047 102.197V96.5039H83.2617V94.4336H84.8047V91.8359H87.627ZM94.3848 91.8359V94.4336H96.1914V96.5039H94.3848V101.777C94.3848 102.168 94.4596 102.448 94.6094 102.617C94.7591 102.786 95.0456 102.871 95.4688 102.871C95.7812 102.871 96.0579 102.848 96.2988 102.803V104.941C95.7454 105.111 95.1758 105.195 94.5898 105.195C92.6107 105.195 91.6016 104.196 91.5625 102.197V96.5039H90.0195V94.4336H91.5625V91.8359H94.3848ZM100.742 105H97.9102V90H100.742V105ZM107.939 105.195C106.39 105.195 105.127 104.72 104.15 103.77C103.18 102.819 102.695 101.553 102.695 99.9707V99.6973C102.695 98.6361 102.9 97.6888 103.311 96.8555C103.721 96.0156 104.3 95.3711 105.049 94.9219C105.804 94.4661 106.663 94.2383 107.627 94.2383C109.072 94.2383 110.208 94.694 111.035 95.6055C111.868 96.5169 112.285 97.8092 112.285 99.4824V100.635H105.557C105.648 101.325 105.921 101.878 106.377 102.295C106.839 102.712 107.422 102.92 108.125 102.92C109.212 102.92 110.062 102.526 110.674 101.738L112.061 103.291C111.637 103.89 111.064 104.359 110.342 104.697C109.619 105.029 108.818 105.195 107.939 105.195ZM107.617 96.5234C107.057 96.5234 106.602 96.7122 106.25 97.0898C105.905 97.4674 105.684 98.0078 105.586 98.7109H109.512V98.4863C109.499 97.8613 109.329 97.3796 109.004 97.041C108.678 96.696 108.216 96.5234 107.617 96.5234ZM119.619 102.08C119.619 101.735 119.447 101.465 119.102 101.27C118.763 101.068 118.216 100.889 117.461 100.732C114.948 100.205 113.691 99.1374 113.691 97.5293C113.691 96.5918 114.079 95.8105 114.854 95.1855C115.635 94.554 116.654 94.2383 117.91 94.2383C119.251 94.2383 120.322 94.554 121.123 95.1855C121.93 95.8171 122.334 96.6374 122.334 97.6465H119.512C119.512 97.2428 119.382 96.9108 119.121 96.6504C118.861 96.3835 118.454 96.25 117.9 96.25C117.425 96.25 117.057 96.3574 116.797 96.5723C116.536 96.7871 116.406 97.0605 116.406 97.3926C116.406 97.7051 116.553 97.959 116.846 98.1543C117.145 98.3431 117.646 98.5091 118.35 98.6523C119.053 98.7891 119.645 98.9453 120.127 99.1211C121.618 99.668 122.363 100.615 122.363 101.963C122.363 102.926 121.95 103.708 121.123 104.307C120.296 104.899 119.229 105.195 117.92 105.195C117.035 105.195 116.247 105.039 115.557 104.727C114.873 104.408 114.336 103.975 113.945 103.428C113.555 102.874 113.359 102.279 113.359 101.641H116.035C116.061 102.142 116.247 102.526 116.592 102.793C116.937 103.06 117.399 103.193 117.979 103.193C118.519 103.193 118.926 103.092 119.199 102.891C119.479 102.682 119.619 102.412 119.619 102.08Z" fill="white"/>
<path d="M93.0675 0H87.2093C86.6964 0 86.2046 0.203672 85.8421 0.566415L48.3438 38.0647L56.9364 46.6573L94.4347 9.15893C94.7974 8.79632 95.0011 8.30454 95.0011 7.79162V1.9336C95.0011 0.865736 94.1353 0 93.0675 0V0Z" fill="#FFFAFA"/>
<path d="M36.7075 49.7182C35.56 50.8658 34.9496 52.3656 34.8923 53.8783C33.3981 53.9201 31.9163 54.5096 30.7757 55.65C28.4081 58.0176 28.4081 61.8564 30.7757 64.2242C33.1433 66.5918 36.9822 66.5918 39.3499 64.2242C40.4835 63.0906 41.0729 61.6196 41.121 60.1345C42.6064 60.0866 44.0775 59.4967 45.2112 58.363L48.7226 54.8514L40.1484 46.2773L36.7075 49.7182Z" fill="#FFFAFA"/>
<path d="M64.7275 44.3267L73.3188 35.7354L75.6487 38.0652L67.0574 46.6565L64.7275 44.3267Z" fill="#FFFAFA"/>
<path d="M50.6729 30.2669L59.2656 21.6743L38.1591 0.56788C37.7964 0.205137 37.3047 0.00146484 36.7918 0.00146484H30.9336C29.8657 0.00146484 29 0.867201 29 1.93506V7.79309C29 8.30601 29.2037 8.79778 29.5664 9.16027L50.6729 30.2669Z" fill="#FFFAFA"/>
<path d="M89.1077 53.8784C89.0505 52.3657 88.44 50.8658 87.2926 49.7184L83.8516 46.2773L75.2773 54.8514L78.7889 58.363C79.9226 59.4967 81.3937 60.0866 82.8791 60.1345C82.9272 61.6196 83.5165 63.0906 84.6501 64.2242C87.0178 66.5918 90.8566 66.5918 93.2244 64.2242C95.592 61.8566 95.592 58.0177 93.2244 55.65C92.0838 54.5097 90.602 53.9202 89.1077 53.8784Z" fill="#FFFAFA"/>
<path d="M86.1508 35.7758C85.3957 35.0206 84.1714 35.0208 83.4163 35.7758L64.7753 54.4167C64.0202 55.1717 64.0202 56.3961 64.7753 57.1512C65.5303 57.9062 66.7547 57.9062 67.5098 57.1512L86.1508 38.5103C86.906 37.7553 86.906 36.5309 86.1508 35.7758Z" fill="#FFFAFA"/>
<path d="M40.584 35.7758C39.829 35.0208 38.6047 35.0206 37.8496 35.7758C37.0944 36.5309 37.0944 37.7551 37.8496 38.5103L56.4906 57.1512C57.2456 57.9062 58.4701 57.9062 59.2251 57.1512C59.9802 56.3961 59.9802 55.1718 59.2251 54.4167L40.584 35.7758Z" fill="#FFFAFA"/>
</svg>
