<svg width="127" height="124" viewBox="0 0 127 124" fill="none" xmlns="http://www.w3.org/2000/svg">
<path d="M11.9727 107.154H7.61719V119H4.6875V107.154H0.390625V104.781H11.9727V107.154ZM10.9961 113.619C10.9961 112.571 11.1979 111.637 11.6016 110.816C12.0052 109.996 12.5846 109.361 13.3398 108.912C14.1016 108.463 14.9837 108.238 15.9863 108.238C17.4121 108.238 18.5742 108.674 19.4727 109.547C20.3776 110.419 20.8822 111.604 20.9863 113.102L21.0059 113.824C21.0059 115.445 20.5534 116.747 19.6484 117.73C18.7435 118.707 17.5293 119.195 16.0059 119.195C14.4824 119.195 13.265 118.707 12.3535 117.73C11.4486 116.754 10.9961 115.426 10.9961 113.746V113.619ZM13.8184 113.824C13.8184 114.827 14.0072 115.595 14.3848 116.129C14.7624 116.656 15.3027 116.92 16.0059 116.92C16.6895 116.92 17.2233 116.66 17.6074 116.139C17.9915 115.611 18.1836 114.771 18.1836 113.619C18.1836 112.636 17.9915 111.874 17.6074 111.334C17.2233 110.794 16.6829 110.523 15.9863 110.523C15.2962 110.523 14.7624 110.794 14.3848 111.334C14.0072 111.868 13.8184 112.698 13.8184 113.824ZM32.2559 113.814C32.2559 115.442 31.8848 116.747 31.1426 117.73C30.4069 118.707 29.4108 119.195 28.1543 119.195C27.0866 119.195 26.224 118.824 25.5664 118.082V123.062H22.7441V108.434H25.3613L25.459 109.469C26.1426 108.648 27.0345 108.238 28.1348 108.238C29.4368 108.238 30.4492 108.72 31.1719 109.684C31.8945 110.647 32.2559 111.975 32.2559 113.668V113.814ZM29.4336 113.609C29.4336 112.626 29.2578 111.868 28.9062 111.334C28.5612 110.8 28.0566 110.533 27.3926 110.533C26.5072 110.533 25.8984 110.872 25.5664 111.549V115.875C25.9115 116.572 26.5267 116.92 27.4121 116.92C28.7598 116.92 29.4336 115.816 29.4336 113.609ZM39.2969 112.008L40.1172 104.781H48.0859V107.135H42.4316L42.0801 110.191C42.7507 109.833 43.4635 109.654 44.2188 109.654C45.5729 109.654 46.6341 110.074 47.4023 110.914C48.1706 111.754 48.5547 112.929 48.5547 114.439C48.5547 115.357 48.3594 116.181 47.9688 116.91C47.5846 117.633 47.0312 118.196 46.3086 118.6C45.5859 118.997 44.7331 119.195 43.75 119.195C42.8906 119.195 42.0931 119.023 41.3574 118.678C40.6217 118.326 40.0391 117.835 39.6094 117.203C39.1862 116.572 38.9616 115.852 38.9355 115.045H41.7285C41.7871 115.637 41.9922 116.1 42.3438 116.432C42.7018 116.757 43.1673 116.92 43.7402 116.92C44.3783 116.92 44.8698 116.692 45.2148 116.236C45.5599 115.774 45.7324 115.123 45.7324 114.283C45.7324 113.476 45.5339 112.857 45.1367 112.428C44.7396 111.998 44.1764 111.783 43.4473 111.783C42.7767 111.783 42.2331 111.959 41.8164 112.311L41.543 112.564L39.2969 112.008ZM64.6484 115.162L66.0352 108.434H68.7598L66.0645 119H63.7012L61.6992 112.35L59.6973 119H57.3438L54.6484 108.434H57.373L58.75 115.152L60.6836 108.434H62.7246L64.6484 115.162ZM73.1445 119H70.3125V108.434H73.1445V119ZM70.1465 105.699C70.1465 105.276 70.2865 104.928 70.5664 104.654C70.8529 104.381 71.2402 104.244 71.7285 104.244C72.2103 104.244 72.5944 104.381 72.8809 104.654C73.1673 104.928 73.3105 105.276 73.3105 105.699C73.3105 106.129 73.1641 106.48 72.8711 106.754C72.5846 107.027 72.2038 107.164 71.7285 107.164C71.2533 107.164 70.8691 107.027 70.5762 106.754C70.2897 106.48 70.1465 106.129 70.1465 105.699ZM78.0762 108.434L78.1641 109.654C78.9193 108.71 79.9316 108.238 81.2012 108.238C82.321 108.238 83.1543 108.567 83.7012 109.225C84.248 109.882 84.528 110.865 84.541 112.174V119H81.7188V112.242C81.7188 111.643 81.5885 111.21 81.3281 110.943C81.0677 110.67 80.6348 110.533 80.0293 110.533C79.235 110.533 78.6393 110.872 78.2422 111.549V119H75.4199V108.434H78.0762ZM89.2871 108.434L89.375 109.654C90.1302 108.71 91.1426 108.238 92.4121 108.238C93.5319 108.238 94.3652 108.567 94.9121 109.225C95.459 109.882 95.7389 110.865 95.752 112.174V119H92.9297V112.242C92.9297 111.643 92.7995 111.21 92.5391 110.943C92.2786 110.67 91.8457 110.533 91.2402 110.533C90.446 110.533 89.8503 110.872 89.4531 111.549V119H86.6309V108.434H89.2871ZM102.764 119.195C101.214 119.195 99.9512 118.72 98.9746 117.77C98.0046 116.819 97.5195 115.553 97.5195 113.971V113.697C97.5195 112.636 97.7246 111.689 98.1348 110.855C98.5449 110.016 99.1243 109.371 99.873 108.922C100.628 108.466 101.488 108.238 102.451 108.238C103.896 108.238 105.033 108.694 105.859 109.605C106.693 110.517 107.109 111.809 107.109 113.482V114.635H100.381C100.472 115.325 100.745 115.878 101.201 116.295C101.663 116.712 102.246 116.92 102.949 116.92C104.036 116.92 104.886 116.526 105.498 115.738L106.885 117.291C106.462 117.89 105.889 118.359 105.166 118.697C104.443 119.029 103.643 119.195 102.764 119.195ZM102.441 110.523C101.882 110.523 101.426 110.712 101.074 111.09C100.729 111.467 100.508 112.008 100.41 112.711H104.336V112.486C104.323 111.861 104.154 111.38 103.828 111.041C103.503 110.696 103.04 110.523 102.441 110.523ZM114.658 111.08C114.274 111.028 113.936 111.002 113.643 111.002C112.575 111.002 111.875 111.363 111.543 112.086V119H108.721V108.434H111.387L111.465 109.693C112.031 108.723 112.816 108.238 113.818 108.238C114.131 108.238 114.424 108.281 114.697 108.365L114.658 111.08ZM121.748 116.08C121.748 115.735 121.576 115.465 121.23 115.27C120.892 115.068 120.345 114.889 119.59 114.732C117.077 114.205 115.82 113.137 115.82 111.529C115.82 110.592 116.208 109.811 116.982 109.186C117.764 108.554 118.783 108.238 120.039 108.238C121.38 108.238 122.451 108.554 123.252 109.186C124.059 109.817 124.463 110.637 124.463 111.646H121.641C121.641 111.243 121.51 110.911 121.25 110.65C120.99 110.383 120.583 110.25 120.029 110.25C119.554 110.25 119.186 110.357 118.926 110.572C118.665 110.787 118.535 111.061 118.535 111.393C118.535 111.705 118.682 111.959 118.975 112.154C119.274 112.343 119.775 112.509 120.479 112.652C121.182 112.789 121.774 112.945 122.256 113.121C123.747 113.668 124.492 114.615 124.492 115.963C124.492 116.926 124.079 117.708 123.252 118.307C122.425 118.899 121.357 119.195 120.049 119.195C119.163 119.195 118.376 119.039 117.686 118.727C117.002 118.408 116.465 117.975 116.074 117.428C115.684 116.874 115.488 116.279 115.488 115.641H118.164C118.19 116.142 118.376 116.526 118.721 116.793C119.066 117.06 119.528 117.193 120.107 117.193C120.648 117.193 121.055 117.092 121.328 116.891C121.608 116.682 121.748 116.412 121.748 116.08Z" fill="white"/>
<path d="M70.5964 80.6304C69.6117 80.6304 68.8125 81.4295 68.8125 82.4142C68.8125 83.3989 69.6117 84.1981 70.5964 84.1981C71.581 84.1981 72.3802 83.3989 72.3802 82.4142C72.3802 81.4295 71.581 80.6304 70.5964 80.6304Z" fill="white"/>
<path d="M95.5703 8.20573H90.2188V5.35156C90.2188 2.40071 87.818 0 84.8672 0H42.0547C39.1038 0 36.7031 2.40071 36.7031 5.35156V8.20573H31.3516C28.4007 8.20573 26 10.6064 26 13.5573C26 25.1625 31.4304 33.6911 40.2402 36.0656C43.2602 42.7131 48.0352 48.3642 54.0961 52.4476C55.4921 53.3883 56.3255 54.9985 56.3255 56.7551V66.584C55.1027 66.8976 53.9808 67.5333 53.0645 68.4499C51.7164 69.7981 50.974 71.5896 50.974 73.4948H49.1901C46.2393 73.4948 43.8385 75.8955 43.8385 78.8464V89.5495C43.8385 90.5347 44.6374 91.3333 45.6224 91.3333H81.2995C82.2845 91.3333 83.0833 90.5347 83.0833 89.5495V78.8464C83.0833 75.8955 80.6826 73.4948 77.7318 73.4948H75.9479C75.9479 70.1761 73.6705 67.3792 70.5964 66.5852V56.764C70.5964 55.0018 71.4303 53.3884 72.8276 52.4478C78.889 48.364 83.664 42.7128 86.6839 36.0651C95.4924 33.6897 100.922 25.1616 100.922 13.5573C100.922 10.6064 98.5212 8.20573 95.5703 8.20573ZM29.5677 13.5573C29.5677 12.5737 30.3679 11.7734 31.3516 11.7734H36.7031V19.7473C36.7031 23.8136 37.3191 27.7955 38.5351 31.6302C32.8584 28.8183 29.5677 22.3242 29.5677 13.5573ZM77.7318 77.0625C78.7154 77.0625 79.5156 77.8627 79.5156 78.8464V87.7656H47.4062V78.8464C47.4062 77.8627 48.2065 77.0625 49.1901 77.0625H77.7318ZM86.651 19.7473C86.651 24.62 85.681 29.3615 83.7673 33.8397C81.0451 40.2111 76.573 45.6224 70.8347 49.4886C68.4515 51.0928 67.0286 53.8126 67.0286 56.764V68.1432C67.0286 69.1285 67.8275 69.9271 68.8125 69.9271C70.7797 69.9271 72.3802 71.5276 72.3802 73.4948H54.5417C54.5417 72.5426 54.9131 71.6469 55.5872 70.9726C56.2283 70.3315 57.0697 69.9644 57.9695 69.9298C58.0157 69.9333 58.0623 69.9351 58.1092 69.9351C59.0942 69.9351 59.8931 69.1285 59.8931 68.1432V56.7551C59.8931 53.81 58.4711 51.0937 56.0895 49.4889C50.3507 45.6226 45.8786 40.2113 43.156 33.8394C41.2416 29.3628 40.2708 24.6215 40.2708 19.7473V5.35156C40.2708 4.36795 41.0711 3.56771 42.0547 3.56771H84.8672C85.8508 3.56771 86.651 4.36795 86.651 5.35156V19.7473ZM88.3874 31.6299C89.603 27.7942 90.2188 23.8125 90.2188 19.7473V11.7734H95.5703C96.5539 11.7734 97.3542 12.5737 97.3542 13.5573C97.3542 22.3237 94.0639 28.8176 88.3874 31.6299Z" fill="white"/>
<path d="M77.5776 21.0784C77.368 20.4325 76.8096 19.9618 76.1375 19.8644L68.4391 18.7469L64.9957 11.7694C64.6951 11.1604 64.075 10.7749 63.3959 10.7749C62.7168 10.7749 62.0967 11.1604 61.7962 11.7694L58.3528 18.7469L50.6546 19.8644C49.9824 19.9619 49.4242 20.4327 49.2143 21.0784C49.0045 21.7244 49.1795 22.4333 49.6658 22.9073L55.2375 28.3373L53.9224 36.0056C53.8077 36.6749 54.0828 37.3511 54.6322 37.7503C55.1816 38.1494 55.91 38.202 56.5108 37.8861L63.3961 34.2661L70.283 37.8861C70.8878 38.204 71.6157 38.1469 72.1616 37.7502C72.7108 37.3509 72.9859 36.6745 72.871 36.0052L71.5546 28.3371L77.1261 22.9073C77.6125 22.4333 77.7873 21.7244 77.5776 21.0784ZM68.3927 26.4368C67.9722 26.8467 67.7801 27.4373 67.8796 28.0162L68.7432 33.0461L64.2259 30.6717C63.706 30.3985 63.0852 30.3985 62.5659 30.6718L58.0501 33.0461L58.9127 28.0159C59.0119 27.437 58.82 26.8465 58.3995 26.4368L54.7455 22.8755L59.794 22.1427C60.3751 22.0583 60.8775 21.6933 61.1374 21.1667L63.3961 16.5896L65.6548 21.1667C65.9147 21.6933 66.4171 22.0583 66.9982 22.1427L72.0469 22.8755L68.3927 26.4368Z" fill="white"/>
<path d="M63.4613 80.6304H56.3258C55.3408 80.6304 54.542 81.429 54.542 82.4142C54.542 83.3994 55.3408 84.1981 56.3258 84.1981H63.4613C64.4463 84.1981 65.2451 83.3994 65.2451 82.4142C65.2451 81.429 64.4463 80.6304 63.4613 80.6304Z" fill="white"/>
</svg>
