<svg width="163" height="103" viewBox="0 0 163 103" fill="none" xmlns="http://www.w3.org/2000/svg">
<path d="M4.19922 95.6465H10.4199V98H1.26953V83.7812H4.19922V95.6465ZM16.7871 98.1953C15.2376 98.1953 13.9746 97.7201 12.998 96.7695C12.028 95.819 11.543 94.5527 11.543 92.9707V92.6973C11.543 91.6361 11.748 90.6888 12.1582 89.8555C12.5684 89.0156 13.1478 88.3711 13.8965 87.9219C14.6517 87.4661 15.5111 87.2383 16.4746 87.2383C17.9199 87.2383 19.056 87.694 19.8828 88.6055C20.7161 89.5169 21.1328 90.8092 21.1328 92.4824V93.6348H14.4043C14.4954 94.3249 14.7689 94.8783 15.2246 95.2949C15.6868 95.7116 16.2695 95.9199 16.9727 95.9199C18.0599 95.9199 18.9095 95.526 19.5215 94.7383L20.9082 96.291C20.485 96.89 19.9121 97.3587 19.1895 97.6973C18.4668 98.0293 17.666 98.1953 16.7871 98.1953ZM16.4648 89.5234C15.9049 89.5234 15.4492 89.7122 15.0977 90.0898C14.7526 90.4674 14.5312 91.0078 14.4336 91.7109H18.3594V91.4863C18.3464 90.8613 18.1771 90.3796 17.8516 90.041C17.526 89.696 17.0638 89.5234 16.4648 89.5234ZM28.8672 98C28.737 97.7461 28.6426 97.4303 28.584 97.0527C27.9004 97.8145 27.0117 98.1953 25.918 98.1953C24.8828 98.1953 24.0234 97.8958 23.3398 97.2969C22.6628 96.6979 22.3242 95.9427 22.3242 95.0312C22.3242 93.9115 22.7376 93.0521 23.5645 92.4531C24.3978 91.8542 25.599 91.5514 27.168 91.5449H28.4668V90.9395C28.4668 90.4512 28.3398 90.0605 28.0859 89.7676C27.8385 89.4746 27.4447 89.3281 26.9043 89.3281C26.429 89.3281 26.0547 89.4421 25.7812 89.6699C25.5143 89.8978 25.3809 90.2103 25.3809 90.6074H22.5586C22.5586 89.9954 22.7474 89.429 23.125 88.9082C23.5026 88.3874 24.0365 87.9805 24.7266 87.6875C25.4167 87.388 26.1914 87.2383 27.0508 87.2383C28.3529 87.2383 29.3848 87.5671 30.1465 88.2246C30.9147 88.8757 31.2988 89.7936 31.2988 90.9785V95.5586C31.3053 96.5612 31.4453 97.3197 31.7188 97.834V98H28.8672ZM26.5332 96.0371C26.9499 96.0371 27.334 95.946 27.6855 95.7637C28.0371 95.5749 28.2975 95.3242 28.4668 95.0117V93.1953H27.4121C25.9993 93.1953 25.2474 93.6836 25.1562 94.6602L25.1465 94.8262C25.1465 95.1777 25.2702 95.4674 25.5176 95.6953C25.765 95.9232 26.1035 96.0371 26.5332 96.0371ZM39.1895 95.0801C39.1895 94.735 39.0169 94.4648 38.6719 94.2695C38.3333 94.0677 37.7865 93.8887 37.0312 93.7324C34.5182 93.2051 33.2617 92.1374 33.2617 90.5293C33.2617 89.5918 33.6491 88.8105 34.4238 88.1855C35.2051 87.554 36.224 87.2383 37.4805 87.2383C38.8216 87.2383 39.8926 87.554 40.6934 88.1855C41.5007 88.8171 41.9043 89.6374 41.9043 90.6465H39.082C39.082 90.2428 38.9518 89.9108 38.6914 89.6504C38.431 89.3835 38.0241 89.25 37.4707 89.25C36.9954 89.25 36.6276 89.3574 36.3672 89.5723C36.1068 89.7871 35.9766 90.0605 35.9766 90.3926C35.9766 90.7051 36.123 90.959 36.416 91.1543C36.7155 91.3431 37.2168 91.5091 37.9199 91.6523C38.623 91.7891 39.2155 91.9453 39.6973 92.1211C41.1882 92.668 41.9336 93.6152 41.9336 94.9629C41.9336 95.9264 41.5202 96.7077 40.6934 97.3066C39.8665 97.8991 38.7988 98.1953 37.4902 98.1953C36.6048 98.1953 35.8171 98.0391 35.127 97.7266C34.4434 97.4076 33.9062 96.9746 33.5156 96.4277C33.125 95.8743 32.9297 95.2786 32.9297 94.6406H35.6055C35.6315 95.1419 35.8171 95.526 36.1621 95.793C36.5072 96.0599 36.9694 96.1934 37.5488 96.1934C38.0892 96.1934 38.4961 96.0924 38.7695 95.8906C39.0495 95.6823 39.1895 95.4121 39.1895 95.0801ZM47.1387 84.8359V87.4336H48.9453V89.5039H47.1387V94.7773C47.1387 95.168 47.2135 95.4479 47.3633 95.6172C47.513 95.7865 47.7995 95.8711 48.2227 95.8711C48.5352 95.8711 48.8118 95.8483 49.0527 95.8027V97.9414C48.4993 98.1107 47.9297 98.1953 47.3438 98.1953C45.3646 98.1953 44.3555 97.196 44.3164 95.1973V89.5039H42.7734V87.4336H44.3164V84.8359H47.1387ZM65.0098 92.8145C65.0098 94.4421 64.6387 95.7474 63.8965 96.7305C63.1608 97.707 62.1647 98.1953 60.9082 98.1953C59.8405 98.1953 58.9779 97.8242 58.3203 97.082V102.062H55.498V87.4336H58.1152L58.2129 88.4688C58.8965 87.6484 59.7884 87.2383 60.8887 87.2383C62.1908 87.2383 63.2031 87.7201 63.9258 88.6836C64.6484 89.6471 65.0098 90.9753 65.0098 92.668V92.8145ZM62.1875 92.6094C62.1875 91.6263 62.0117 90.8678 61.6602 90.334C61.3151 89.8001 60.8105 89.5332 60.1465 89.5332C59.2611 89.5332 58.6523 89.8717 58.3203 90.5488V94.875C58.6654 95.5716 59.2806 95.9199 60.166 95.9199C61.5137 95.9199 62.1875 94.8164 62.1875 92.6094ZM72.8906 98C72.7604 97.7461 72.666 97.4303 72.6074 97.0527C71.9238 97.8145 71.0352 98.1953 69.9414 98.1953C68.9062 98.1953 68.0469 97.8958 67.3633 97.2969C66.6862 96.6979 66.3477 95.9427 66.3477 95.0312C66.3477 93.9115 66.7611 93.0521 67.5879 92.4531C68.4212 91.8542 69.6224 91.5514 71.1914 91.5449H72.4902V90.9395C72.4902 90.4512 72.3633 90.0605 72.1094 89.7676C71.862 89.4746 71.4681 89.3281 70.9277 89.3281C70.4525 89.3281 70.0781 89.4421 69.8047 89.6699C69.5378 89.8978 69.4043 90.2103 69.4043 90.6074H66.582C66.582 89.9954 66.7708 89.429 67.1484 88.9082C67.526 88.3874 68.0599 87.9805 68.75 87.6875C69.4401 87.388 70.2148 87.2383 71.0742 87.2383C72.3763 87.2383 73.4082 87.5671 74.1699 88.2246C74.9382 88.8757 75.3223 89.7936 75.3223 90.9785V95.5586C75.3288 96.5612 75.4688 97.3197 75.7422 97.834V98H72.8906ZM70.5566 96.0371C70.9733 96.0371 71.3574 95.946 71.709 95.7637C72.0605 95.5749 72.321 95.3242 72.4902 95.0117V93.1953H71.4355C70.0228 93.1953 69.2708 93.6836 69.1797 94.6602L69.1699 94.8262C69.1699 95.1777 69.2936 95.4674 69.541 95.6953C69.7884 95.9232 70.127 96.0371 70.5566 96.0371ZM83.4277 90.0801C83.0436 90.028 82.7051 90.002 82.4121 90.002C81.3444 90.002 80.6445 90.3633 80.3125 91.0859V98H77.4902V87.4336H80.1562L80.2344 88.6934C80.8008 87.7233 81.5853 87.2383 82.5879 87.2383C82.9004 87.2383 83.1934 87.2806 83.4668 87.3652L83.4277 90.0801ZM88.6621 84.8359V87.4336H90.4688V89.5039H88.6621V94.7773C88.6621 95.168 88.737 95.4479 88.8867 95.6172C89.0365 95.7865 89.3229 95.8711 89.7461 95.8711C90.0586 95.8711 90.3353 95.8483 90.5762 95.8027V97.9414C90.0228 98.1107 89.4531 98.1953 88.8672 98.1953C86.888 98.1953 85.8789 97.196 85.8398 95.1973V89.5039H84.2969V87.4336H85.8398V84.8359H88.6621ZM95.0195 98H92.1875V87.4336H95.0195V98ZM92.0215 84.6992C92.0215 84.276 92.1615 83.9277 92.4414 83.6543C92.7279 83.3809 93.1152 83.2441 93.6035 83.2441C94.0853 83.2441 94.4694 83.3809 94.7559 83.6543C95.0423 83.9277 95.1855 84.276 95.1855 84.6992C95.1855 85.1289 95.0391 85.4805 94.7461 85.7539C94.4596 86.0273 94.0788 86.1641 93.6035 86.1641C93.1283 86.1641 92.7441 86.0273 92.4512 85.7539C92.1647 85.4805 92.0215 85.1289 92.0215 84.6992ZM101.748 95.9199C102.269 95.9199 102.692 95.7767 103.018 95.4902C103.343 95.2038 103.512 94.8229 103.525 94.3477H106.172C106.165 95.0638 105.97 95.7214 105.586 96.3203C105.202 96.9128 104.674 97.375 104.004 97.707C103.34 98.0326 102.604 98.1953 101.797 98.1953C100.286 98.1953 99.0951 97.7168 98.2227 96.7598C97.3503 95.7962 96.9141 94.4681 96.9141 92.7754V92.5898C96.9141 90.9622 97.347 89.6634 98.2129 88.6934C99.0788 87.7233 100.267 87.2383 101.777 87.2383C103.099 87.2383 104.157 87.6159 104.951 88.3711C105.752 89.1198 106.159 90.1191 106.172 91.3691H103.525C103.512 90.8223 103.343 90.3796 103.018 90.041C102.692 89.696 102.262 89.5234 101.729 89.5234C101.071 89.5234 100.573 89.7643 100.234 90.2461C99.9023 90.7214 99.7363 91.4961 99.7363 92.5703V92.8633C99.7363 93.9505 99.9023 94.7318 100.234 95.207C100.566 95.6823 101.071 95.9199 101.748 95.9199ZM110.762 98H107.93V87.4336H110.762V98ZM107.764 84.6992C107.764 84.276 107.904 83.9277 108.184 83.6543C108.47 83.3809 108.857 83.2441 109.346 83.2441C109.827 83.2441 110.212 83.3809 110.498 83.6543C110.785 83.9277 110.928 84.276 110.928 84.6992C110.928 85.1289 110.781 85.4805 110.488 85.7539C110.202 86.0273 109.821 86.1641 109.346 86.1641C108.87 86.1641 108.486 86.0273 108.193 85.7539C107.907 85.4805 107.764 85.1289 107.764 84.6992ZM122.607 92.8145C122.607 94.4421 122.236 95.7474 121.494 96.7305C120.758 97.707 119.762 98.1953 118.506 98.1953C117.438 98.1953 116.576 97.8242 115.918 97.082V102.062H113.096V87.4336H115.713L115.811 88.4688C116.494 87.6484 117.386 87.2383 118.486 87.2383C119.788 87.2383 120.801 87.7201 121.523 88.6836C122.246 89.6471 122.607 90.9753 122.607 92.668V92.8145ZM119.785 92.6094C119.785 91.6263 119.609 90.8678 119.258 90.334C118.913 89.8001 118.408 89.5332 117.744 89.5332C116.859 89.5332 116.25 89.8717 115.918 90.5488V94.875C116.263 95.5716 116.878 95.9199 117.764 95.9199C119.111 95.9199 119.785 94.8164 119.785 92.6094ZM130.488 98C130.358 97.7461 130.264 97.4303 130.205 97.0527C129.521 97.8145 128.633 98.1953 127.539 98.1953C126.504 98.1953 125.645 97.8958 124.961 97.2969C124.284 96.6979 123.945 95.9427 123.945 95.0312C123.945 93.9115 124.359 93.0521 125.186 92.4531C126.019 91.8542 127.22 91.5514 128.789 91.5449H130.088V90.9395C130.088 90.4512 129.961 90.0605 129.707 89.7676C129.46 89.4746 129.066 89.3281 128.525 89.3281C128.05 89.3281 127.676 89.4421 127.402 89.6699C127.135 89.8978 127.002 90.2103 127.002 90.6074H124.18C124.18 89.9954 124.368 89.429 124.746 88.9082C125.124 88.3874 125.658 87.9805 126.348 87.6875C127.038 87.388 127.812 87.2383 128.672 87.2383C129.974 87.2383 131.006 87.5671 131.768 88.2246C132.536 88.8757 132.92 89.7936 132.92 90.9785V95.5586C132.926 96.5612 133.066 97.3197 133.34 97.834V98H130.488ZM128.154 96.0371C128.571 96.0371 128.955 95.946 129.307 95.7637C129.658 95.5749 129.919 95.3242 130.088 95.0117V93.1953H129.033C127.62 93.1953 126.868 93.6836 126.777 94.6602L126.768 94.8262C126.768 95.1777 126.891 95.4674 127.139 95.6953C127.386 95.9232 127.725 96.0371 128.154 96.0371ZM138.467 84.8359V87.4336H140.273V89.5039H138.467V94.7773C138.467 95.168 138.542 95.4479 138.691 95.6172C138.841 95.7865 139.128 95.8711 139.551 95.8711C139.863 95.8711 140.14 95.8483 140.381 95.8027V97.9414C139.827 98.1107 139.258 98.1953 138.672 98.1953C136.693 98.1953 135.684 97.196 135.645 95.1973V89.5039H134.102V87.4336H135.645V84.8359H138.467ZM146.709 98.1953C145.16 98.1953 143.896 97.7201 142.92 96.7695C141.95 95.819 141.465 94.5527 141.465 92.9707V92.6973C141.465 91.6361 141.67 90.6888 142.08 89.8555C142.49 89.0156 143.07 88.3711 143.818 87.9219C144.574 87.4661 145.433 87.2383 146.396 87.2383C147.842 87.2383 148.978 87.694 149.805 88.6055C150.638 89.5169 151.055 90.8092 151.055 92.4824V93.6348H144.326C144.417 94.3249 144.691 94.8783 145.146 95.2949C145.609 95.7116 146.191 95.9199 146.895 95.9199C147.982 95.9199 148.831 95.526 149.443 94.7383L150.83 96.291C150.407 96.89 149.834 97.3587 149.111 97.6973C148.389 98.0293 147.588 98.1953 146.709 98.1953ZM146.387 89.5234C145.827 89.5234 145.371 89.7122 145.02 90.0898C144.674 90.4674 144.453 91.0078 144.355 91.7109H148.281V91.4863C148.268 90.8613 148.099 90.3796 147.773 90.041C147.448 89.696 146.986 89.5234 146.387 89.5234ZM152.227 92.6387C152.227 90.9915 152.594 89.6797 153.33 88.7031C154.072 87.7266 155.085 87.2383 156.367 87.2383C157.396 87.2383 158.245 87.6224 158.916 88.3906V83H161.748V98H159.199L159.062 96.877C158.359 97.7559 157.454 98.1953 156.348 98.1953C155.104 98.1953 154.105 97.707 153.35 96.7305C152.601 95.7474 152.227 94.3835 152.227 92.6387ZM155.049 92.8438C155.049 93.8333 155.221 94.5918 155.566 95.1191C155.911 95.6465 156.413 95.9102 157.07 95.9102C157.943 95.9102 158.558 95.5423 158.916 94.8066V90.6367C158.564 89.901 157.956 89.5332 157.09 89.5332C155.729 89.5332 155.049 90.6367 155.049 92.8438Z" fill="white"/>
<path d="M66.2188 40.6719C66.2188 39.5938 66.5781 38.7188 67.2969 38.0469C68.0312 37.375 68.9453 37.0391 70.0391 37.0391C71.1484 37.0391 72.0625 37.375 72.7812 38.0469C73.5156 38.7188 73.8828 39.5938 73.8828 40.6719C73.8828 41.7344 73.5234 42.6016 72.8047 43.2734C72.0859 43.9297 71.1641 44.2578 70.0391 44.2578C68.9297 44.2578 68.0156 43.9297 67.2969 43.2734C66.5781 42.6016 66.2188 41.7344 66.2188 40.6719ZM66.2188 21.4766C66.2188 20.3984 66.5781 19.5234 67.2969 18.8516C68.0312 18.1797 68.9453 17.8438 70.0391 17.8438C71.1484 17.8438 72.0625 18.1797 72.7812 18.8516C73.5156 19.5234 73.8828 20.3984 73.8828 21.4766C73.8828 22.5391 73.5234 23.4062 72.8047 24.0781C72.0859 24.7344 71.1641 25.0625 70.0391 25.0625C68.9297 25.0625 68.0156 24.7344 67.2969 24.0781C66.5781 23.4062 66.2188 22.5391 66.2188 21.4766ZM79.7422 30.125C79.7422 26.5469 80.2188 23.1406 81.1719 19.9062C82.125 16.6719 83.5312 13.8125 85.3906 11.3281C87.25 8.82812 89.2656 7.09375 91.4375 6.125L92.75 9.78125C90.4688 11.4688 88.6875 14.0781 87.4062 17.6094C86.125 21.1406 85.4844 25.2656 85.4844 29.9844V30.7109C85.4844 35.4453 86.1172 39.5859 87.3828 43.1328C88.6484 46.6797 90.4375 49.3281 92.75 51.0781L91.4375 54.6641C89.3125 53.7109 87.3281 52.0234 85.4844 49.6016C83.6562 47.1953 82.2578 44.4141 81.2891 41.2578C80.3203 38.1016 79.8047 34.8047 79.7422 31.3672V30.125Z" fill="#FFFAFA"/>
</svg>
