<svg width="122" height="117" viewBox="0 0 122 117" fill="none" xmlns="http://www.w3.org/2000/svg">
<path d="M11.9727 100.154H7.61719V112H4.6875V100.154H0.390625V97.7812H11.9727V100.154ZM10.9961 106.619C10.9961 105.571 11.1979 104.637 11.6016 103.816C12.0052 102.996 12.5846 102.361 13.3398 101.912C14.1016 101.463 14.9837 101.238 15.9863 101.238C17.4121 101.238 18.5742 101.674 19.4727 102.547C20.3776 103.419 20.8822 104.604 20.9863 106.102L21.0059 106.824C21.0059 108.445 20.5534 109.747 19.6484 110.73C18.7435 111.707 17.5293 112.195 16.0059 112.195C14.4824 112.195 13.265 111.707 12.3535 110.73C11.4486 109.754 10.9961 108.426 10.9961 106.746V106.619ZM13.8184 106.824C13.8184 107.827 14.0072 108.595 14.3848 109.129C14.7624 109.656 15.3027 109.92 16.0059 109.92C16.6895 109.92 17.2233 109.66 17.6074 109.139C17.9915 108.611 18.1836 107.771 18.1836 106.619C18.1836 105.636 17.9915 104.874 17.6074 104.334C17.2233 103.794 16.6829 103.523 15.9863 103.523C15.2962 103.523 14.7624 103.794 14.3848 104.334C14.0072 104.868 13.8184 105.698 13.8184 106.824ZM32.2559 106.814C32.2559 108.442 31.8848 109.747 31.1426 110.73C30.4069 111.707 29.4108 112.195 28.1543 112.195C27.0866 112.195 26.224 111.824 25.5664 111.082V116.062H22.7441V101.434H25.3613L25.459 102.469C26.1426 101.648 27.0345 101.238 28.1348 101.238C29.4368 101.238 30.4492 101.72 31.1719 102.684C31.8945 103.647 32.2559 104.975 32.2559 106.668V106.814ZM29.4336 106.609C29.4336 105.626 29.2578 104.868 28.9062 104.334C28.5612 103.8 28.0566 103.533 27.3926 103.533C26.5072 103.533 25.8984 103.872 25.5664 104.549V108.875C25.9115 109.572 26.5267 109.92 27.4121 109.92C28.7598 109.92 29.4336 108.816 29.4336 106.609ZM39.2969 105.008L40.1172 97.7812H48.0859V100.135H42.4316L42.0801 103.191C42.7507 102.833 43.4635 102.654 44.2188 102.654C45.5729 102.654 46.6341 103.074 47.4023 103.914C48.1706 104.754 48.5547 105.929 48.5547 107.439C48.5547 108.357 48.3594 109.181 47.9688 109.91C47.5846 110.633 47.0312 111.196 46.3086 111.6C45.5859 111.997 44.7331 112.195 43.75 112.195C42.8906 112.195 42.0931 112.023 41.3574 111.678C40.6217 111.326 40.0391 110.835 39.6094 110.203C39.1862 109.572 38.9616 108.852 38.9355 108.045H41.7285C41.7871 108.637 41.9922 109.1 42.3438 109.432C42.7018 109.757 43.1673 109.92 43.7402 109.92C44.3783 109.92 44.8698 109.692 45.2148 109.236C45.5599 108.774 45.7324 108.123 45.7324 107.283C45.7324 106.476 45.5339 105.857 45.1367 105.428C44.7396 104.998 44.1764 104.783 43.4473 104.783C42.7767 104.783 42.2331 104.959 41.8164 105.311L41.543 105.564L39.2969 105.008ZM58.4375 112H55.6055V97H58.4375V112ZM60.332 106.619C60.332 105.571 60.5339 104.637 60.9375 103.816C61.3411 102.996 61.9206 102.361 62.6758 101.912C63.4375 101.463 64.3197 101.238 65.3223 101.238C66.748 101.238 67.9102 101.674 68.8086 102.547C69.7135 103.419 70.2181 104.604 70.3223 106.102L70.3418 106.824C70.3418 108.445 69.8893 109.747 68.9844 110.73C68.0794 111.707 66.8652 112.195 65.3418 112.195C63.8184 112.195 62.6009 111.707 61.6895 110.73C60.7845 109.754 60.332 108.426 60.332 106.746V106.619ZM63.1543 106.824C63.1543 107.827 63.3431 108.595 63.7207 109.129C64.0983 109.656 64.6387 109.92 65.3418 109.92C66.0254 109.92 66.5592 109.66 66.9434 109.139C67.3275 108.611 67.5195 107.771 67.5195 106.619C67.5195 105.636 67.3275 104.874 66.9434 104.334C66.5592 103.794 66.0189 103.523 65.3223 103.523C64.6322 103.523 64.0983 103.794 63.7207 104.334C63.3431 104.868 63.1543 105.698 63.1543 106.824ZM71.6406 106.619C71.6406 105.571 71.8424 104.637 72.2461 103.816C72.6497 102.996 73.2292 102.361 73.9844 101.912C74.7461 101.463 75.6283 101.238 76.6309 101.238C78.0566 101.238 79.2188 101.674 80.1172 102.547C81.0221 103.419 81.5267 104.604 81.6309 106.102L81.6504 106.824C81.6504 108.445 81.1979 109.747 80.293 110.73C79.388 111.707 78.1738 112.195 76.6504 112.195C75.127 112.195 73.9095 111.707 72.998 110.73C72.0931 109.754 71.6406 108.426 71.6406 106.746V106.619ZM74.4629 106.824C74.4629 107.827 74.6517 108.595 75.0293 109.129C75.4069 109.656 75.9473 109.92 76.6504 109.92C77.334 109.92 77.8678 109.66 78.252 109.139C78.6361 108.611 78.8281 107.771 78.8281 106.619C78.8281 105.636 78.6361 104.874 78.252 104.334C77.8678 103.794 77.3275 103.523 76.6309 103.523C75.9408 103.523 75.4069 103.794 75.0293 104.334C74.6517 104.868 74.4629 105.698 74.4629 106.824ZM89.1113 109.08C89.1113 108.735 88.9388 108.465 88.5938 108.27C88.2552 108.068 87.7083 107.889 86.9531 107.732C84.4401 107.205 83.1836 106.137 83.1836 104.529C83.1836 103.592 83.571 102.811 84.3457 102.186C85.127 101.554 86.1458 101.238 87.4023 101.238C88.7435 101.238 89.8145 101.554 90.6152 102.186C91.4225 102.817 91.8262 103.637 91.8262 104.646H89.0039C89.0039 104.243 88.8737 103.911 88.6133 103.65C88.3529 103.383 87.946 103.25 87.3926 103.25C86.9173 103.25 86.5495 103.357 86.2891 103.572C86.0286 103.787 85.8984 104.061 85.8984 104.393C85.8984 104.705 86.0449 104.959 86.3379 105.154C86.6374 105.343 87.1387 105.509 87.8418 105.652C88.5449 105.789 89.1374 105.945 89.6191 106.121C91.11 106.668 91.8555 107.615 91.8555 108.963C91.8555 109.926 91.4421 110.708 90.6152 111.307C89.7884 111.899 88.7207 112.195 87.4121 112.195C86.5267 112.195 85.7389 112.039 85.0488 111.727C84.3652 111.408 83.8281 110.975 83.4375 110.428C83.0469 109.874 82.8516 109.279 82.8516 108.641H85.5273C85.5534 109.142 85.7389 109.526 86.084 109.793C86.429 110.06 86.8913 110.193 87.4707 110.193C88.0111 110.193 88.418 110.092 88.6914 109.891C88.9714 109.682 89.1113 109.412 89.1113 109.08ZM98.5449 112.195C96.9954 112.195 95.7324 111.72 94.7559 110.77C93.7858 109.819 93.3008 108.553 93.3008 106.971V106.697C93.3008 105.636 93.5059 104.689 93.916 103.855C94.3262 103.016 94.9056 102.371 95.6543 101.922C96.4095 101.466 97.2689 101.238 98.2324 101.238C99.6777 101.238 100.814 101.694 101.641 102.605C102.474 103.517 102.891 104.809 102.891 106.482V107.635H96.1621C96.2533 108.325 96.5267 108.878 96.9824 109.295C97.4447 109.712 98.0273 109.92 98.7305 109.92C99.8177 109.92 100.667 109.526 101.279 108.738L102.666 110.291C102.243 110.89 101.67 111.359 100.947 111.697C100.225 112.029 99.4238 112.195 98.5449 112.195ZM98.2227 103.523C97.6628 103.523 97.207 103.712 96.8555 104.09C96.5104 104.467 96.2891 105.008 96.1914 105.711H100.117V105.486C100.104 104.861 99.9349 104.38 99.6094 104.041C99.2839 103.696 98.8216 103.523 98.2227 103.523ZM110.439 104.08C110.055 104.028 109.717 104.002 109.424 104.002C108.356 104.002 107.656 104.363 107.324 105.086V112H104.502V101.434H107.168L107.246 102.693C107.812 101.723 108.597 101.238 109.6 101.238C109.912 101.238 110.205 101.281 110.479 101.365L110.439 104.08ZM117.529 109.08C117.529 108.735 117.357 108.465 117.012 108.27C116.673 108.068 116.126 107.889 115.371 107.732C112.858 107.205 111.602 106.137 111.602 104.529C111.602 103.592 111.989 102.811 112.764 102.186C113.545 101.554 114.564 101.238 115.82 101.238C117.161 101.238 118.232 101.554 119.033 102.186C119.84 102.817 120.244 103.637 120.244 104.646H117.422C117.422 104.243 117.292 103.911 117.031 103.65C116.771 103.383 116.364 103.25 115.811 103.25C115.335 103.25 114.967 103.357 114.707 103.572C114.447 103.787 114.316 104.061 114.316 104.393C114.316 104.705 114.463 104.959 114.756 105.154C115.055 105.343 115.557 105.509 116.26 105.652C116.963 105.789 117.555 105.945 118.037 106.121C119.528 106.668 120.273 107.615 120.273 108.963C120.273 109.926 119.86 110.708 119.033 111.307C118.206 111.899 117.139 112.195 115.83 112.195C114.945 112.195 114.157 112.039 113.467 111.727C112.783 111.408 112.246 110.975 111.855 110.428C111.465 109.874 111.27 109.279 111.27 108.641H113.945C113.971 109.142 114.157 109.526 114.502 109.793C114.847 110.06 115.309 110.193 115.889 110.193C116.429 110.193 116.836 110.092 117.109 109.891C117.389 109.682 117.529 109.412 117.529 109.08Z" fill="white"/>
<path d="M32.9102 29.6426C32.043 30.8848 30.8301 31.8164 29.2715 32.4375C27.7246 33.0469 25.9199 33.3516 23.8574 33.3516C21.7715 33.3516 19.9199 32.8652 18.3027 31.8926C16.6855 30.9082 15.4316 29.5137 14.541 27.709C13.6621 25.9043 13.2109 23.8125 13.1875 21.4336V19.2012C13.1875 15.3457 14.084 12.3574 15.877 10.2363C17.6816 8.11523 20.2129 7.05469 23.4707 7.05469C26.1426 7.05469 28.293 7.74023 29.9219 9.11133C31.5508 10.4707 32.5469 12.4043 32.9102 14.9121H29.5352C28.9023 11.5254 26.8867 9.83203 23.4883 9.83203C21.2266 9.83203 19.5098 10.6289 18.3379 12.2227C17.1777 13.8047 16.5918 16.1016 16.5801 19.1133V21.2051C16.5801 24.0762 17.2363 26.3613 18.5488 28.0605C19.8613 29.748 21.6367 30.5918 23.875 30.5918C25.1406 30.5918 26.248 30.4512 27.1973 30.1699C28.1465 29.8887 28.9316 29.4141 29.5527 28.7461V22.998H23.6289V20.2559H32.9102V29.6426ZM52.6855 26.3203H41.9629L39.5547 33H36.0742L45.8477 7.40625H48.8008L58.5918 33H55.1289L52.6855 26.3203ZM42.9824 23.543H51.6836L47.3242 11.5723L42.9824 23.543ZM66.3965 7.40625L74.7637 28.2891L83.1309 7.40625H87.5078V33H84.1328V23.0332L84.4492 12.2754L76.0469 33H73.4629L65.0781 12.3281L65.4121 23.0332V33H62.0371V7.40625H66.3965ZM107.934 21.1699H96.8418V30.2402H109.727V33H93.4668V7.40625H109.551V10.1836H96.8418V18.4102H107.934V21.1699ZM38.6934 63.0293C38.6934 65.5371 38.2715 67.7285 37.4277 69.6035C36.584 71.4668 35.3887 72.8906 33.8418 73.875C32.2949 74.8594 30.4902 75.3516 28.4277 75.3516C26.4121 75.3516 24.625 74.8594 23.0664 73.875C21.5078 72.8789 20.2949 71.4668 19.4277 69.6387C18.5723 67.7988 18.1328 65.6719 18.1094 63.2578V61.4121C18.1094 58.9512 18.5371 56.7773 19.3926 54.8906C20.248 53.0039 21.4551 51.5625 23.0137 50.5664C24.584 49.5586 26.377 49.0547 28.3926 49.0547C30.4434 49.0547 32.248 49.5527 33.8066 50.5488C35.377 51.5332 36.584 52.9688 37.4277 54.8555C38.2715 56.7305 38.6934 58.916 38.6934 61.4121V63.0293ZM35.3359 61.377C35.3359 58.3418 34.7266 56.0156 33.5078 54.3984C32.2891 52.7695 30.584 51.9551 28.3926 51.9551C26.2598 51.9551 24.5781 52.7695 23.3477 54.3984C22.1289 56.0156 21.502 58.2656 21.4668 61.1484V63.0293C21.4668 65.9707 22.082 68.2852 23.3125 69.9727C24.5547 71.6484 26.2598 72.4863 28.4277 72.4863C30.6074 72.4863 32.2949 71.6953 33.4902 70.1133C34.6855 68.5195 35.3008 66.2402 35.3359 63.2754V61.377ZM51.8418 70.5176L59.1543 49.4062H62.8457L53.3535 75H50.3652L40.8906 49.4062H44.5645L51.8418 70.5176ZM80.7578 63.1699H69.666V72.2402H82.5508V75H66.291V49.4062H82.375V52.1836H69.666V60.4102H80.7578V63.1699ZM96.1387 64.6465H90.127V75H86.7344V49.4062H95.207C98.0898 49.4062 100.305 50.0625 101.852 51.375C103.41 52.6875 104.189 54.5977 104.189 57.1055C104.189 58.6992 103.756 60.0879 102.889 61.2715C102.033 62.4551 100.838 63.3398 99.3027 63.9258L105.314 74.7891V75H101.693L96.1387 64.6465ZM90.127 61.8867H95.3125C96.9883 61.8867 98.3184 61.4531 99.3027 60.5859C100.299 59.7188 100.797 58.5586 100.797 57.1055C100.797 55.5234 100.322 54.3105 99.373 53.4668C98.4355 52.623 97.0762 52.1953 95.2949 52.1836H90.127V61.8867Z" fill="#FFFAFA"/>
</svg>
