<svg width="127" height="100" viewBox="0 0 127 100" fill="none" xmlns="http://www.w3.org/2000/svg">
<path d="M12.5195 93.2031C11.9922 93.8346 11.2467 94.3262 10.2832 94.6777C9.31966 95.0228 8.25195 95.1953 7.08008 95.1953C5.84961 95.1953 4.76888 94.9284 3.83789 94.3945C2.91341 93.8542 2.19727 93.0729 1.68945 92.0508C1.18815 91.0286 0.93099 89.8275 0.917969 88.4473V87.4805C0.917969 86.0612 1.1556 84.834 1.63086 83.7988C2.11263 82.7572 2.80273 81.9629 3.70117 81.416C4.60612 80.8626 5.66406 80.5859 6.875 80.5859C8.5612 80.5859 9.87956 80.9896 10.8301 81.7969C11.7806 82.5977 12.3438 83.7663 12.5195 85.3027H9.66797C9.53776 84.4889 9.24805 83.8932 8.79883 83.5156C8.35612 83.138 7.74414 82.9492 6.96289 82.9492C5.9668 82.9492 5.20833 83.3236 4.6875 84.0723C4.16667 84.821 3.90299 85.9342 3.89648 87.4121V88.3203C3.89648 89.8112 4.17969 90.9375 4.74609 91.6992C5.3125 92.4609 6.14258 92.8418 7.23633 92.8418C8.33659 92.8418 9.12109 92.6074 9.58984 92.1387V89.6875H6.92383V87.5293H12.5195V93.2031ZM20.8398 95C20.7096 94.7461 20.6152 94.4303 20.5566 94.0527C19.873 94.8145 18.9844 95.1953 17.8906 95.1953C16.8555 95.1953 15.9961 94.8958 15.3125 94.2969C14.6354 93.6979 14.2969 92.9427 14.2969 92.0312C14.2969 90.9115 14.7103 90.0521 15.5371 89.4531C16.3704 88.8542 17.5716 88.5514 19.1406 88.5449H20.4395V87.9395C20.4395 87.4512 20.3125 87.0605 20.0586 86.7676C19.8112 86.4746 19.4173 86.3281 18.877 86.3281C18.4017 86.3281 18.0273 86.4421 17.7539 86.6699C17.487 86.8978 17.3535 87.2103 17.3535 87.6074H14.5312C14.5312 86.9954 14.7201 86.429 15.0977 85.9082C15.4753 85.3874 16.0091 84.9805 16.6992 84.6875C17.3893 84.388 18.1641 84.2383 19.0234 84.2383C20.3255 84.2383 21.3574 84.5671 22.1191 85.2246C22.8874 85.8757 23.2715 86.7936 23.2715 87.9785V92.5586C23.278 93.5612 23.418 94.3197 23.6914 94.834V95H20.8398ZM18.5059 93.0371C18.9225 93.0371 19.3066 92.946 19.6582 92.7637C20.0098 92.5749 20.2702 92.3242 20.4395 92.0117V90.1953H19.3848C17.972 90.1953 17.2201 90.6836 17.1289 91.6602L17.1191 91.8262C17.1191 92.1777 17.2428 92.4674 17.4902 92.6953C17.7376 92.9232 18.0762 93.0371 18.5059 93.0371ZM28.0859 84.4336L28.1738 85.6152C28.9225 84.6973 29.9349 84.2383 31.2109 84.2383C32.5716 84.2383 33.5059 84.7754 34.0137 85.8496C34.7559 84.7754 35.8138 84.2383 37.1875 84.2383C38.3333 84.2383 39.1862 84.5736 39.7461 85.2441C40.306 85.9082 40.5859 86.9108 40.5859 88.252V95H37.7539V88.2617C37.7539 87.6628 37.6367 87.2266 37.4023 86.9531C37.168 86.6732 36.7546 86.5332 36.1621 86.5332C35.3158 86.5332 34.7298 86.9368 34.4043 87.7441L34.4141 95H31.5918V88.2715C31.5918 87.6595 31.4714 87.2168 31.2305 86.9434C30.9896 86.6699 30.5794 86.5332 30 86.5332C29.1992 86.5332 28.6198 86.8652 28.2617 87.5293V95H25.4395V84.4336H28.0859ZM47.627 95.1953C46.0775 95.1953 44.8145 94.7201 43.8379 93.7695C42.8678 92.819 42.3828 91.5527 42.3828 89.9707V89.6973C42.3828 88.6361 42.5879 87.6888 42.998 86.8555C43.4082 86.0156 43.9876 85.3711 44.7363 84.9219C45.4915 84.4661 46.3509 84.2383 47.3145 84.2383C48.7598 84.2383 49.8958 84.694 50.7227 85.6055C51.556 86.5169 51.9727 87.8092 51.9727 89.4824V90.6348H45.2441C45.3353 91.3249 45.6087 91.8783 46.0645 92.2949C46.5267 92.7116 47.1094 92.9199 47.8125 92.9199C48.8997 92.9199 49.7493 92.526 50.3613 91.7383L51.748 93.291C51.3249 93.89 50.752 94.3587 50.0293 94.6973C49.3066 95.0293 48.5059 95.1953 47.627 95.1953ZM47.3047 86.5234C46.7448 86.5234 46.2891 86.7122 45.9375 87.0898C45.5924 87.4674 45.3711 88.0078 45.2734 88.7109H49.1992V88.4863C49.1862 87.8613 49.0169 87.3796 48.6914 87.041C48.3659 86.696 47.9036 86.5234 47.3047 86.5234ZM59.3066 92.0801C59.3066 91.735 59.1341 91.4648 58.7891 91.2695C58.4505 91.0677 57.9036 90.8887 57.1484 90.7324C54.6354 90.2051 53.3789 89.1374 53.3789 87.5293C53.3789 86.5918 53.7663 85.8105 54.541 85.1855C55.3223 84.554 56.3411 84.2383 57.5977 84.2383C58.9388 84.2383 60.0098 84.554 60.8105 85.1855C61.6178 85.8171 62.0215 86.6374 62.0215 87.6465H59.1992C59.1992 87.2428 59.069 86.9108 58.8086 86.6504C58.5482 86.3835 58.1413 86.25 57.5879 86.25C57.1126 86.25 56.7448 86.3574 56.4844 86.5723C56.224 86.7871 56.0938 87.0605 56.0938 87.3926C56.0938 87.7051 56.2402 87.959 56.5332 88.1543C56.8327 88.3431 57.334 88.5091 58.0371 88.6523C58.7402 88.7891 59.3327 88.9453 59.8145 89.1211C61.3053 89.668 62.0508 90.6152 62.0508 91.9629C62.0508 92.9264 61.6374 93.7077 60.8105 94.3066C59.9837 94.8991 58.916 95.1953 57.6074 95.1953C56.722 95.1953 55.9342 95.0391 55.2441 94.7266C54.5605 94.4076 54.0234 93.9746 53.6328 93.4277C53.2422 92.8743 53.0469 92.2786 53.0469 91.6406H55.7227C55.7487 92.1419 55.9342 92.526 56.2793 92.793C56.6243 93.0599 57.0866 93.1934 57.666 93.1934C58.2064 93.1934 58.6133 93.0924 58.8867 92.8906C59.1667 92.6823 59.3066 92.4121 59.3066 92.0801ZM78.3691 89.8145C78.3691 91.4421 77.998 92.7474 77.2559 93.7305C76.5202 94.707 75.5241 95.1953 74.2676 95.1953C73.1999 95.1953 72.3372 94.8242 71.6797 94.082V99.0625H68.8574V84.4336H71.4746L71.5723 85.4688C72.2559 84.6484 73.1478 84.2383 74.248 84.2383C75.5501 84.2383 76.5625 84.7201 77.2852 85.6836C78.0078 86.6471 78.3691 87.9753 78.3691 89.668V89.8145ZM75.5469 89.6094C75.5469 88.6263 75.3711 87.8678 75.0195 87.334C74.6745 86.8001 74.1699 86.5332 73.5059 86.5332C72.6204 86.5332 72.0117 86.8717 71.6797 87.5488V91.875C72.0247 92.5716 72.64 92.9199 73.5254 92.9199C74.873 92.9199 75.5469 91.8164 75.5469 89.6094ZM83.1055 95H80.2734V80H83.1055V95ZM91.5625 95C91.4323 94.7461 91.3379 94.4303 91.2793 94.0527C90.5957 94.8145 89.707 95.1953 88.6133 95.1953C87.5781 95.1953 86.7188 94.8958 86.0352 94.2969C85.3581 93.6979 85.0195 92.9427 85.0195 92.0312C85.0195 90.9115 85.4329 90.0521 86.2598 89.4531C87.0931 88.8542 88.2943 88.5514 89.8633 88.5449H91.1621V87.9395C91.1621 87.4512 91.0352 87.0605 90.7812 86.7676C90.5339 86.4746 90.14 86.3281 89.5996 86.3281C89.1243 86.3281 88.75 86.4421 88.4766 86.6699C88.2096 86.8978 88.0762 87.2103 88.0762 87.6074H85.2539C85.2539 86.9954 85.4427 86.429 85.8203 85.9082C86.1979 85.3874 86.7318 84.9805 87.4219 84.6875C88.112 84.388 88.8867 84.2383 89.7461 84.2383C91.0482 84.2383 92.0801 84.5671 92.8418 85.2246C93.61 85.8757 93.9941 86.7936 93.9941 87.9785V92.5586C94.0007 93.5612 94.1406 94.3197 94.4141 94.834V95H91.5625ZM89.2285 93.0371C89.6452 93.0371 90.0293 92.946 90.3809 92.7637C90.7324 92.5749 90.9928 92.3242 91.1621 92.0117V90.1953H90.1074C88.6947 90.1953 87.9427 90.6836 87.8516 91.6602L87.8418 91.8262C87.8418 92.1777 87.9655 92.4674 88.2129 92.6953C88.4603 92.9232 88.7988 93.0371 89.2285 93.0371ZM99.9512 91.0059L101.904 84.4336H104.932L100.684 96.6406L100.449 97.1973C99.8177 98.5775 98.776 99.2676 97.3242 99.2676C96.9141 99.2676 96.4974 99.2057 96.0742 99.082V96.9434L96.5039 96.9531C97.0378 96.9531 97.4349 96.8717 97.6953 96.709C97.9622 96.5462 98.1706 96.276 98.3203 95.8984L98.6523 95.0293L94.9512 84.4336H97.9883L99.9512 91.0059ZM110.771 95.1953C109.222 95.1953 107.959 94.7201 106.982 93.7695C106.012 92.819 105.527 91.5527 105.527 89.9707V89.6973C105.527 88.6361 105.732 87.6888 106.143 86.8555C106.553 86.0156 107.132 85.3711 107.881 84.9219C108.636 84.4661 109.495 84.2383 110.459 84.2383C111.904 84.2383 113.04 84.694 113.867 85.6055C114.701 86.5169 115.117 87.8092 115.117 89.4824V90.6348H108.389C108.48 91.3249 108.753 91.8783 109.209 92.2949C109.671 92.7116 110.254 92.9199 110.957 92.9199C112.044 92.9199 112.894 92.526 113.506 91.7383L114.893 93.291C114.469 93.89 113.896 94.3587 113.174 94.6973C112.451 95.0293 111.65 95.1953 110.771 95.1953ZM110.449 86.5234C109.889 86.5234 109.434 86.7122 109.082 87.0898C108.737 87.4674 108.516 88.0078 108.418 88.7109H112.344V88.4863C112.331 87.8613 112.161 87.3796 111.836 87.041C111.51 86.696 111.048 86.5234 110.449 86.5234ZM116.289 89.6387C116.289 87.9915 116.657 86.6797 117.393 85.7031C118.135 84.7266 119.147 84.2383 120.43 84.2383C121.458 84.2383 122.308 84.6224 122.979 85.3906V80H125.811V95H123.262L123.125 93.877C122.422 94.7559 121.517 95.1953 120.41 95.1953C119.167 95.1953 118.167 94.707 117.412 93.7305C116.663 92.7474 116.289 91.3835 116.289 89.6387ZM119.111 89.8438C119.111 90.8333 119.284 91.5918 119.629 92.1191C119.974 92.6465 120.475 92.9102 121.133 92.9102C122.005 92.9102 122.62 92.5423 122.979 91.8066V87.6367C122.627 86.901 122.018 86.5332 121.152 86.5332C119.792 86.5332 119.111 87.6367 119.111 89.8438Z" fill="white"/>
<path d="M35.0859 44H30.7266V15.1016L21.9844 18.3125V14.375L34.4062 9.71094H35.0859V44ZM70.1484 44H47.7891V40.8828L59.6016 27.7578C61.3516 25.7734 62.5547 24.1641 63.2109 22.9297C63.8828 21.6797 64.2188 20.3906 64.2188 19.0625C64.2188 17.2812 63.6797 15.8203 62.6016 14.6797C61.5234 13.5391 60.0859 12.9688 58.2891 12.9688C56.1328 12.9688 54.4531 13.5859 53.25 14.8203C52.0625 16.0391 51.4688 17.7422 51.4688 19.9297H47.1328C47.1328 16.7891 48.1406 14.25 50.1562 12.3125C52.1875 10.375 54.8984 9.40625 58.2891 9.40625C61.4609 9.40625 63.9688 10.2422 65.8125 11.9141C67.6562 13.5703 68.5781 15.7812 68.5781 18.5469C68.5781 21.9062 66.4375 25.9062 62.1562 30.5469L53.0156 40.4609H70.1484V44ZM81.0469 24.8281H84.3047C86.3516 24.7969 87.9609 24.2578 89.1328 23.2109C90.3047 22.1641 90.8906 20.75 90.8906 18.9688C90.8906 14.9687 88.8984 12.9688 84.9141 12.9688C83.0391 12.9688 81.5391 13.5078 80.4141 14.5859C79.3047 15.6484 78.75 17.0625 78.75 18.8281H74.4141C74.4141 16.125 75.3984 13.8828 77.3672 12.1016C79.3516 10.3047 81.8672 9.40625 84.9141 9.40625C88.1328 9.40625 90.6562 10.2578 92.4844 11.9609C94.3125 13.6641 95.2266 16.0312 95.2266 19.0625C95.2266 20.5469 94.7422 21.9844 93.7734 23.375C92.8203 24.7656 91.5156 25.8047 89.8594 26.4922C91.7344 27.0859 93.1797 28.0703 94.1953 29.4453C95.2266 30.8203 95.7422 32.5 95.7422 34.4844C95.7422 37.5469 94.7422 39.9766 92.7422 41.7734C90.7422 43.5703 88.1406 44.4688 84.9375 44.4688C81.7344 44.4688 79.125 43.6016 77.1094 41.8672C75.1094 40.1328 74.1094 37.8438 74.1094 35H78.4688C78.4688 36.7969 79.0547 38.2344 80.2266 39.3125C81.3984 40.3906 82.9688 40.9297 84.9375 40.9297C87.0312 40.9297 88.6328 40.3828 89.7422 39.2891C90.8516 38.1953 91.4062 36.625 91.4062 34.5781C91.4062 32.5938 90.7969 31.0703 89.5781 30.0078C88.3594 28.9453 86.6016 28.3984 84.3047 28.3672H81.0469V24.8281Z" fill="#FFFAFA"/>
</svg>
