<svg width="15" height="27" viewBox="0 0 15 27" fill="none" xmlns="http://www.w3.org/2000/svg">
<path d="M5.27539 18.793C5.29883 17.3984 5.45703 16.2969 5.75 15.4883C6.04297 14.6797 6.64062 13.7832 7.54297 12.7988L9.8457 10.4258C10.8301 9.3125 11.3223 8.11719 11.3223 6.83984C11.3223 5.60938 11 4.64844 10.3555 3.95703C9.71094 3.25391 8.77344 2.90234 7.54297 2.90234C6.34766 2.90234 5.38672 3.21875 4.66016 3.85156C3.93359 4.48438 3.57031 5.33398 3.57031 6.40039H0.318359C0.341797 4.50195 1.01562 2.97266 2.33984 1.8125C3.67578 0.640625 5.41016 0.0546875 7.54297 0.0546875C9.75781 0.0546875 11.4805 0.652344 12.7109 1.84766C13.9531 3.03125 14.5742 4.66016 14.5742 6.73438C14.5742 8.78516 13.625 10.8066 11.7266 12.7988L9.81055 14.6973C8.95508 15.6465 8.52734 17.0117 8.52734 18.793H5.27539ZM5.13477 24.3652C5.13477 23.8379 5.29297 23.3984 5.60938 23.0469C5.9375 22.6836 6.41797 22.502 7.05078 22.502C7.68359 22.502 8.16406 22.6836 8.49219 23.0469C8.82031 23.3984 8.98438 23.8379 8.98438 24.3652C8.98438 24.8926 8.82031 25.332 8.49219 25.6836C8.16406 26.0234 7.68359 26.1934 7.05078 26.1934C6.41797 26.1934 5.9375 26.0234 5.60938 25.6836C5.29297 25.332 5.13477 24.8926 5.13477 24.3652Z" fill="#FFFAFA"/>
</svg>
