<svg width="38" height="38" viewBox="0 0 38 38" fill="none" xmlns="http://www.w3.org/2000/svg">
<path d="M30.4307 35.7731H30.8444C30.6337 35.7314 30.4919 35.7272 30.4307 35.7731Z" fill="black"/>
<path d="M8.11914 26H6.30273V13.959L2.66016 15.2969V13.6562L7.83594 11.7129H8.11914V26ZM22.7285 26H13.4121V24.7012L18.334 19.2324C19.0632 18.4056 19.5645 17.735 19.8379 17.2207C20.1178 16.6999 20.2578 16.1628 20.2578 15.6094C20.2578 14.8672 20.0332 14.2585 19.584 13.7832C19.1348 13.3079 18.5358 13.0703 17.7871 13.0703C16.8887 13.0703 16.1888 13.3275 15.6875 13.8418C15.1927 14.3496 14.9453 15.0592 14.9453 15.9707H13.1387C13.1387 14.6621 13.5586 13.6042 14.3984 12.7969C15.2448 11.9896 16.3743 11.5859 17.7871 11.5859C19.1087 11.5859 20.1536 11.9342 20.9219 12.6309C21.6901 13.321 22.0742 14.2422 22.0742 15.3945C22.0742 16.7943 21.1823 18.4609 19.3984 20.3945L15.5898 24.5254H22.7285V26ZM27.2695 18.0117H28.627C29.4798 17.9987 30.1504 17.7741 30.6387 17.3379C31.127 16.9017 31.3711 16.3125 31.3711 15.5703C31.3711 13.9036 30.541 13.0703 28.8809 13.0703C28.0996 13.0703 27.4746 13.2949 27.0059 13.7441C26.5436 14.1868 26.3125 14.776 26.3125 15.5117H24.5059C24.5059 14.3854 24.916 13.4512 25.7363 12.709C26.5632 11.9603 27.6113 11.5859 28.8809 11.5859C30.222 11.5859 31.2734 11.9408 32.0352 12.6504C32.7969 13.36 33.1777 14.3464 33.1777 15.6094C33.1777 16.2279 32.9759 16.8268 32.5723 17.4062C32.1751 17.9857 31.6315 18.4186 30.9414 18.7051C31.7227 18.9525 32.3249 19.3626 32.748 19.9355C33.1777 20.5085 33.3926 21.2083 33.3926 22.0352C33.3926 23.3112 32.9759 24.3236 32.1426 25.0723C31.3092 25.821 30.2253 26.1953 28.8906 26.1953C27.556 26.1953 26.4688 25.834 25.6289 25.1113C24.7956 24.3887 24.3789 23.4349 24.3789 22.25H26.1953C26.1953 22.9987 26.4395 23.5977 26.9277 24.0469C27.416 24.4961 28.0703 24.7207 28.8906 24.7207C29.763 24.7207 30.4303 24.4928 30.8926 24.0371C31.3548 23.5814 31.5859 22.9271 31.5859 22.0742C31.5859 21.2474 31.332 20.6126 30.8242 20.1699C30.3164 19.7272 29.584 19.4993 28.627 19.4863H27.2695V18.0117Z" fill="#FFFAFA"/>
</svg>
