<svg width="38" height="38" viewBox="0 0 38 38" fill="none" xmlns="http://www.w3.org/2000/svg">
<path d="M30.4307 35.7731H30.8444C30.6337 35.7314 30.4919 35.7272 30.4307 35.7731Z" fill="black"/>
<path d="M11.0742 15.0674C10.8333 15.4124 10.4964 15.6712 10.0635 15.8438C9.63379 16.013 9.13249 16.0977 8.55957 16.0977C7.98014 16.0977 7.46582 15.9626 7.0166 15.6924C6.56738 15.4189 6.21908 15.0316 5.97168 14.5303C5.72754 14.029 5.60221 13.4479 5.5957 12.7871V12.167C5.5957 11.096 5.84473 10.266 6.34277 9.67676C6.84408 9.08757 7.5472 8.79297 8.45215 8.79297C9.19434 8.79297 9.79167 8.9834 10.2441 9.36426C10.6966 9.74186 10.9733 10.279 11.0742 10.9756H10.1367C9.96094 10.0348 9.40104 9.56445 8.45703 9.56445C7.82878 9.56445 7.35189 9.78581 7.02637 10.2285C6.7041 10.668 6.54134 11.306 6.53809 12.1426V12.7236C6.53809 13.5212 6.72038 14.1559 7.08496 14.6279C7.44954 15.0967 7.94271 15.3311 8.56445 15.3311C8.91602 15.3311 9.22363 15.292 9.4873 15.2139C9.75098 15.1357 9.96908 15.0039 10.1416 14.8184V13.2217H8.49609V12.46H11.0742V15.0674ZM16.5674 14.1445H13.5889L12.9199 16H11.9531L14.668 8.89062H15.4883L18.208 16H17.2461L16.5674 14.1445ZM13.8721 13.373H16.2891L15.0781 10.0479L13.8721 13.373ZM20.376 8.89062L22.7002 14.6914L25.0244 8.89062H26.2402V16H25.3027V13.2314L25.3906 10.2432L23.0566 16H22.3389L20.0098 10.2578L20.1025 13.2314V16H19.165V8.89062H20.376ZM31.9141 12.7139H28.833V15.2334H32.4121V16H27.8955V8.89062H32.3633V9.66211H28.833V11.9473H31.9141V12.7139ZM11.2939 24.6748C11.2939 25.3714 11.1768 25.9801 10.9424 26.501C10.708 27.0186 10.376 27.4141 9.94629 27.6875C9.5166 27.9609 9.0153 28.0977 8.44238 28.0977C7.88249 28.0977 7.38607 27.9609 6.95312 27.6875C6.52018 27.4108 6.18327 27.0186 5.94238 26.5107C5.70475 25.9997 5.58268 25.4089 5.57617 24.7383V24.2256C5.57617 23.542 5.69499 22.9382 5.93262 22.4141C6.17025 21.89 6.50553 21.4896 6.93848 21.2129C7.37467 20.9329 7.87272 20.793 8.43262 20.793C9.00228 20.793 9.50358 20.9313 9.93652 21.208C10.3727 21.4814 10.708 21.8802 10.9424 22.4043C11.1768 22.9251 11.2939 23.5322 11.2939 24.2256V24.6748ZM10.3613 24.2158C10.3613 23.3727 10.1921 22.7266 9.85352 22.2773C9.51497 21.8249 9.04134 21.5986 8.43262 21.5986C7.84017 21.5986 7.37305 21.8249 7.03125 22.2773C6.69271 22.7266 6.51855 23.3516 6.50879 24.1523V24.6748C6.50879 25.4919 6.67969 26.1348 7.02148 26.6035C7.36654 27.069 7.84017 27.3018 8.44238 27.3018C9.04785 27.3018 9.5166 27.082 9.84863 26.6426C10.1807 26.1999 10.3516 25.5667 10.3613 24.7432V24.2158ZM14.9463 26.7549L16.9775 20.8906H18.0029L15.3662 28H14.5361L11.9043 20.8906H12.9248L14.9463 26.7549ZM22.9785 24.7139H19.8975V27.2334H23.4766V28H18.96V20.8906H23.4277V21.6621H19.8975V23.9473H22.9785V24.7139ZM27.251 25.124H25.5811V28H24.6387V20.8906H26.9922C27.793 20.8906 28.4082 21.0729 28.8379 21.4375C29.2708 21.8021 29.4873 22.3327 29.4873 23.0293C29.4873 23.472 29.3669 23.8577 29.126 24.1865C28.8883 24.5153 28.5563 24.7611 28.1299 24.9238L29.7998 27.9414V28H28.7939L27.251 25.124ZM25.5811 24.3574H27.0215C27.487 24.3574 27.8564 24.237 28.1299 23.9961C28.4066 23.7552 28.5449 23.4329 28.5449 23.0293C28.5449 22.5898 28.4131 22.2529 28.1494 22.0186C27.889 21.7842 27.5114 21.6654 27.0166 21.6621H25.5811V24.3574Z" fill="#FFFAFA"/>
</svg>
