<svg width="25" height="25" viewBox="0 0 25 25" fill="none" xmlns="http://www.w3.org/2000/svg">
<path d="M24.268 0H22.049C21.8547 0 21.6684 0.0771489 21.5311 0.214552L7.32715 14.4185L10.582 17.6733L24.7859 3.46931C24.9233 3.33195 25.0005 3.14567 25.0005 2.95139V0.732426C25.0005 0.327932 24.6725 0 24.268 0V0Z" fill="#FFFAFA"/>
<path d="M2.91951 18.8327C2.48484 19.2673 2.25364 19.8355 2.23196 20.4085C1.66594 20.4243 1.10466 20.6476 0.672624 21.0796C-0.224208 21.9764 -0.224208 23.4305 0.672624 24.3274C1.56946 25.2242 3.02357 25.2242 3.92045 24.3274C4.34984 23.898 4.57309 23.3408 4.5913 22.7782C5.15395 22.7601 5.71118 22.5366 6.14063 22.1072L7.47071 20.7771L4.22289 17.5293L2.91951 18.8327Z" fill="#FFFAFA"/>
<path d="M13.5332 16.7905L16.7875 13.5362L17.67 14.4187L14.4157 17.673L13.5332 16.7905Z" fill="#FFFAFA"/>
<path d="M8.20947 11.4647L11.4643 8.20991L3.46936 0.21504C3.332 0.0776372 3.14572 0.000488281 2.95143 0.000488281H0.732426C0.327932 0.000488281 0 0.32842 0 0.732915V2.95187C0 3.14616 0.0771489 3.33244 0.214552 3.46975L8.20947 11.4647Z" fill="#FFFAFA"/>
<path d="M22.7681 20.4085C22.7464 19.8355 22.5152 19.2673 22.0806 18.8327L20.7771 17.5293L17.5293 20.7771L18.8594 22.1072C19.2889 22.5366 19.8461 22.7601 20.4088 22.7782C20.427 23.3408 20.6502 23.898 21.0796 24.3274C21.9764 25.2242 23.4306 25.2242 24.3274 24.3274C25.2243 23.4305 25.2243 21.9764 24.3274 21.0796C23.8954 20.6476 23.3341 20.4243 22.7681 20.4085Z" fill="#FFFAFA"/>
<path d="M21.6483 13.5514C21.3622 13.2654 20.8985 13.2654 20.6125 13.5514L13.5514 20.6124C13.2654 20.8984 13.2654 21.3622 13.5514 21.6482C13.8374 21.9342 14.3012 21.9342 14.5872 21.6482L21.6483 14.5872C21.9343 14.3012 21.9343 13.8375 21.6483 13.5514Z" fill="#FFFAFA"/>
<path d="M4.38802 13.5514C4.10203 13.2654 3.63826 13.2654 3.35222 13.5514C3.06619 13.8375 3.06619 14.3012 3.35222 14.5872L10.4133 21.6482C10.6992 21.9342 11.1631 21.9342 11.449 21.6482C11.7351 21.3622 11.7351 20.8984 11.449 20.6124L4.38802 13.5514Z" fill="#FFFAFA"/>
</svg>
