<svg width="38" height="38" viewBox="0 0 38 38" fill="none" xmlns="http://www.w3.org/2000/svg">
<path d="M30.4307 35.7731H30.8444C30.6337 35.7314 30.4919 35.7272 30.4307 35.7731Z" fill="#FFFAFA"/>
<path d="M14.3086 24.0527C14.3086 23.7402 14.3997 23.4798 14.582 23.2715C14.7708 23.0632 15.0508 22.959 15.4219 22.959C15.793 22.959 16.0729 23.0632 16.2617 23.2715C16.457 23.4798 16.5547 23.7402 16.5547 24.0527C16.5547 24.3522 16.457 24.6029 16.2617 24.8047C16.0729 25.0065 15.793 25.1074 15.4219 25.1074C15.0508 25.1074 14.7708 25.0065 14.582 24.8047C14.3997 24.6029 14.3086 24.3522 14.3086 24.0527ZM14.3184 15.4297C14.3184 15.1172 14.4095 14.8568 14.5918 14.6484C14.7806 14.4401 15.0605 14.3359 15.4316 14.3359C15.8027 14.3359 16.0827 14.4401 16.2715 14.6484C16.4668 14.8568 16.5645 15.1172 16.5645 15.4297C16.5645 15.7292 16.4668 15.9798 16.2715 16.1816C16.0827 16.3835 15.8027 16.4844 15.4316 16.4844C15.0605 16.4844 14.7806 16.3835 14.5918 16.1816C14.4095 15.9798 14.3184 15.7292 14.3184 15.4297ZM19.1426 19.2285C19.1426 17.7572 19.3379 16.3444 19.7285 14.9902C20.1257 13.6361 20.7148 12.4056 21.4961 11.2988C22.2773 10.1921 23.0879 9.41081 23.9277 8.95508L24.2988 10.1465C23.3483 10.8757 22.5671 11.9889 21.9551 13.4863C21.3496 14.9837 21.0176 16.6602 20.959 18.5156L20.9492 19.3457C20.9492 21.8587 21.4082 24.0397 22.3262 25.8887C22.8796 26.9954 23.5371 27.8613 24.2988 28.4863L23.9277 29.5898C23.0618 29.1081 22.235 28.3008 21.4473 27.168C19.9108 24.9544 19.1426 22.3079 19.1426 19.2285Z" fill="#FFFAFA"/>
</svg>
