<svg width="38" height="38" viewBox="0 0 38 38" fill="none" xmlns="http://www.w3.org/2000/svg">
<path d="M21.9688 33.5469C21.5591 33.5469 21.2266 33.8794 21.2266 34.2891C21.2266 34.6988 21.5591 35.0312 21.9688 35.0312C22.3784 35.0312 22.7109 34.6988 22.7109 34.2891C22.7109 33.8794 22.3784 33.5469 21.9688 33.5469Z" fill="white"/>
<path d="M32.3594 3.41406H30.1328V2.22656C30.1328 0.998836 29.134 0 27.9062 0H10.0938C8.86602 0 7.86719 0.998836 7.86719 2.22656V3.41406H5.64062C4.4129 3.41406 3.41406 4.4129 3.41406 5.64062C3.41406 10.4691 5.67343 14.0175 9.3388 15.0054C10.5953 17.7712 12.582 20.1223 15.1037 21.8213C15.6845 22.2126 16.0312 22.8826 16.0312 23.6134V27.7028C15.5225 27.8333 15.0557 28.0978 14.6745 28.4791C14.1136 29.0401 13.8047 29.7855 13.8047 30.5781H13.0625C11.8348 30.5781 10.8359 31.577 10.8359 32.8047V37.2578C10.8359 37.6677 11.1683 38 11.5781 38H26.4219C26.8317 38 27.1641 37.6677 27.1641 37.2578V32.8047C27.1641 31.577 26.1652 30.5781 24.9375 30.5781H24.1953C24.1953 29.1974 23.2478 28.0337 21.9688 27.7033V23.6171C21.9688 22.8839 22.3157 22.2127 22.8971 21.8214C25.419 20.1223 27.4056 17.771 28.6621 15.0052C32.3269 14.0169 34.5859 10.4687 34.5859 5.64062C34.5859 4.4129 33.5871 3.41406 32.3594 3.41406ZM4.89844 5.64062C4.89844 5.23138 5.23138 4.89844 5.64062 4.89844H7.86719V8.21602C7.86719 9.90783 8.12346 11.5645 8.62941 13.16C6.26755 11.9901 4.89844 9.28818 4.89844 5.64062ZM24.9375 32.0625C25.3467 32.0625 25.6797 32.3954 25.6797 32.8047V36.5156H12.3203V32.8047C12.3203 32.3954 12.6533 32.0625 13.0625 32.0625H24.9375ZM28.6484 8.21602C28.6484 10.2434 28.2448 12.2161 27.4486 14.0793C26.316 16.7302 24.4554 18.9816 22.0679 20.5901C21.0763 21.2576 20.4844 22.3892 20.4844 23.6171V28.3516C20.4844 28.7615 20.8167 29.0938 21.2266 29.0938C22.045 29.0938 22.7109 29.7596 22.7109 30.5781H15.2891C15.2891 30.1819 15.4436 29.8093 15.7241 29.5287C15.9908 29.262 16.3409 29.1093 16.7153 29.0949C16.7345 29.0963 16.7538 29.0971 16.7734 29.0971C17.1832 29.0971 17.5156 28.7615 17.5156 28.3516V23.6134C17.5156 22.3881 16.924 21.258 15.9331 20.5903C13.5454 18.9817 11.6847 16.7302 10.552 14.0791C9.75546 12.2166 9.35156 10.244 9.35156 8.21602V2.22656C9.35156 1.81732 9.68451 1.48438 10.0938 1.48438H27.9062C28.3155 1.48438 28.6484 1.81732 28.6484 2.22656V8.21602ZM29.3709 13.1599C29.8766 11.564 30.1328 9.90739 30.1328 8.21602V4.89844H32.3594C32.7686 4.89844 33.1016 5.23138 33.1016 5.64062C33.1016 9.28796 31.7326 11.9898 29.3709 13.1599Z" fill="white"/>
<path d="M24.8732 8.76979C24.786 8.50104 24.5537 8.30518 24.2741 8.26465L21.0711 7.79975L19.6384 4.89668C19.5134 4.6433 19.2554 4.48291 18.9729 4.48291C18.6903 4.48291 18.4323 4.6433 18.3073 4.89668L16.8746 7.79975L13.6717 8.26465C13.3921 8.30525 13.1598 8.50111 13.0725 8.76979C12.9852 9.03853 13.058 9.33348 13.2603 9.53068L15.5785 11.7899L15.0313 14.9803C14.9836 15.2588 15.098 15.5402 15.3266 15.7063C15.5552 15.8723 15.8583 15.8942 16.1082 15.7627L18.9729 14.2566L21.8383 15.7627C22.0899 15.895 22.3928 15.8713 22.6199 15.7062C22.8484 15.5401 22.9629 15.2587 22.9151 14.9802L22.3673 11.7898L24.6854 9.53068C24.8878 9.33348 24.9605 9.03853 24.8732 8.76979ZM21.0518 10.9992C20.8769 11.1697 20.7969 11.4155 20.8383 11.6563L21.1976 13.749L19.3182 12.7611C19.1018 12.6475 18.8436 12.6475 18.6275 12.7612L16.7487 13.749L17.1076 11.6562C17.1489 11.4153 17.069 11.1696 16.8941 10.9992L15.3738 9.51746L17.4742 9.21257C17.716 9.17747 17.925 9.02562 18.0332 8.80652L18.9729 6.90214L19.9127 8.80652C20.0208 9.02562 20.2298 9.17747 20.4716 9.21257L22.5722 9.51746L21.0518 10.9992Z" fill="white"/>
<path d="M19 33.5469H16.0312C15.6214 33.5469 15.2891 33.8792 15.2891 34.2891C15.2891 34.699 15.6214 35.0312 16.0312 35.0312H19C19.4098 35.0312 19.7422 34.699 19.7422 34.2891C19.7422 33.8792 19.4098 33.5469 19 33.5469Z" fill="white"/>
<path d="M30.4307 35.7731H30.8444C30.6337 35.7314 30.4919 35.7272 30.4307 35.7731Z" fill="black"/>
</svg>
